<svg height="480pt" viewBox="0 0 480 480" width="480pt" xmlns="http://www.w3.org/2000/svg"><g fill="#9bc9ff"><path d="m240 368v48c97.203125 0 176-78.796875 176-176h-48c-.082031 70.65625-57.34375 127.917969-128 128zm0 0"/><path d="m112 240c.082031-70.65625 57.34375-127.917969 128-128v-48c-97.203125 0-176 78.796875-176 176zm0 0"/><path d="m368 240h48c0-97.203125-78.796875-176-176-176v48c70.65625.082031 127.917969 57.34375 128 128zm0 0"/><path d="m112 240h-48c0 97.203125 78.796875 176 176 176v-48c-70.65625-.082031-127.917969-57.34375-128-128zm0 0"/><path d="m240 160v-48c-70.65625.082031-127.917969 57.34375-128 128h48c.046875-44.164062 35.835938-79.953125 80-80zm0 0"/><path d="m320 240h48c-.082031-70.65625-57.34375-127.917969-128-128v48c44.164062.046875 79.953125 35.835938 80 80zm0 0"/><path d="m240 320v48c70.65625-.082031 127.917969-57.34375 128-128h-48c-.046875 44.164062-35.835938 79.953125-80 80zm0 0"/><path d="m240 368v-48c-44.164062-.046875-79.953125-35.835938-80-80h-48c.082031 70.65625 57.34375 127.917969 128 128zm0 0"/><path d="m240 216v-56c-44.164062.046875-79.953125 35.835938-80 80h56c0-13.253906 10.746094-24 24-24zm0 0"/><path d="m264 240h56c-.046875-44.164062-35.835938-79.953125-80-80v56c13.253906 0 24 10.746094 24 24zm0 0"/><path d="m320 240h-56c0 13.253906-10.746094 24-24 24v56c44.164062-.046875 79.953125-35.835938 80-80zm0 0"/><path d="m216 240h-56c.046875 44.164062 35.835938 79.953125 80 80v-56c-13.253906 0-24-10.746094-24-24zm0 0"/><path d="m264 240c0 13.253906-10.746094 24-24 24s-24-10.746094-24-24 10.746094-24 24-24 24 10.746094 24 24zm0 0"/><path d="m72 56c0 8.835938-7.164062 16-16 16s-16-7.164062-16-16 7.164062-16 16-16 16 7.164062 16 16zm0 0"/><path d="m440 56c0 8.835938-7.164062 16-16 16s-16-7.164062-16-16 7.164062-16 16-16 16 7.164062 16 16zm0 0"/><path d="m72 424c0 8.835938-7.164062 16-16 16s-16-7.164062-16-16 7.164062-16 16-16 16 7.164062 16 16zm0 0"/><path d="m440 424c0 8.835938-7.164062 16-16 16s-16-7.164062-16-16 7.164062-16 16-16 16 7.164062 16 16zm0 0"/></g><path d="m480 480h-480v-480h480zm-464-16h448v-448h-448zm0 0" fill="#1e81ce"/><path d="m240 424c-101.621094 0-184-82.378906-184-184s82.378906-184 184-184 184 82.378906 184 184c-.109375 101.574219-82.425781 183.890625-184 184zm0-352c-92.785156 0-168 75.214844-168 168s75.214844 168 168 168 168-75.214844 168-168c-.105469-92.738281-75.261719-167.894531-168-168zm0 0" fill="#1e81ce"/><path d="m240 376c-75.109375 0-136-60.890625-136-136s60.890625-136 136-136 136 60.890625 136 136c-.082031 75.074219-60.925781 135.917969-136 136zm0-256c-66.273438 0-120 53.726562-120 120s53.726562 120 120 120 120-53.726562 120-120c-.074219-66.242188-53.757812-119.925781-120-120zm0 0" fill="#1e81ce"/><path d="m240 328c-48.601562 0-88-39.398438-88-88s39.398438-88 88-88 88 39.398438 88 88c-.058594 48.578125-39.421875 87.941406-88 88zm0-160c-39.765625 0-72 32.234375-72 72s32.234375 72 72 72 72-32.234375 72-72c-.042969-39.746094-32.253906-71.957031-72-72zm0 0" fill="#1e81ce"/><path d="m240 272c-17.671875 0-32-14.328125-32-32s14.328125-32 32-32 32 14.328125 32 32-14.328125 32-32 32zm0-48c-8.835938 0-16 7.164062-16 16s7.164062 16 16 16 16-7.164062 16-16-7.164062-16-16-16zm0 0" fill="#1e81ce"/><path d="m232 64h16v152h-16zm0 0" fill="#1e81ce"/><path d="m232 264h16v152h-16zm0 0" fill="#1e81ce"/><path d="m264 232h152v16h-152zm0 0" fill="#1e81ce"/><path d="m64 232h152v16h-152zm0 0" fill="#1e81ce"/><path d="m56 80c-13.253906 0-24-10.746094-24-24s10.746094-24 24-24 24 10.746094 24 24-10.746094 24-24 24zm0-32c-4.417969 0-8 3.582031-8 8s3.582031 8 8 8 8-3.582031 8-8-3.582031-8-8-8zm0 0" fill="#1e81ce"/><path d="m424 80c-13.253906 0-24-10.746094-24-24s10.746094-24 24-24 24 10.746094 24 24-10.746094 24-24 24zm0-32c-4.417969 0-8 3.582031-8 8s3.582031 8 8 8 8-3.582031 8-8-3.582031-8-8-8zm0 0" fill="#1e81ce"/><path d="m56 448c-13.253906 0-24-10.746094-24-24s10.746094-24 24-24 24 10.746094 24 24-10.746094 24-24 24zm0-32c-4.417969 0-8 3.582031-8 8s3.582031 8 8 8 8-3.582031 8-8-3.582031-8-8-8zm0 0" fill="#1e81ce"/><path d="m424 448c-13.253906 0-24-10.746094-24-24s10.746094-24 24-24 24 10.746094 24 24-10.746094 24-24 24zm0-32c-4.417969 0-8 3.582031-8 8s3.582031 8 8 8 8-3.582031 8-8-3.582031-8-8-8zm0 0" fill="#1e81ce"/></svg>