<svg height="480pt" viewBox="0 0 480 480" width="480pt" xmlns="http://www.w3.org/2000/svg"><g fill="#9bc9ff"><path d="m228.144531 113.375-52.144531 52.144531v-109.519531h-128v352h128v-48.265625c0-8.488281 3.371094-16.628906 9.375-22.628906l95.730469-95.730469c6-6.003906 14.140625-9.375 22.628906-9.375h168.265625v-128h-221.222656c-8.492188 0-16.632813 3.371094-22.632813 9.375zm0 0"/><path d="m360 232h96v32h-96zm0 0"/><path d="m336 56v-48h-288v48zm0 0"/><path d="m32 408v32h160v-32zm0 0"/><path d="m8 440v32h208v-32zm0 0"/></g><path d="m472 96h-221.222656c-10.613282-.027344-20.796875 4.195312-28.28125 11.71875l-38.496094 38.488281v-82.207031h152c4.417969 0 8-3.582031 8-8v-48c0-4.417969-3.582031-8-8-8h-288c-4.417969 0-8 3.582031-8 8v392h-16v32h-24v48h224v-48h-24v-32h-16v-40.265625c.015625-6.359375 2.542969-12.457031 7.03125-16.964844l95.738281-95.738281c4.507813-4.488281 10.605469-7.015625 16.964844-7.03125h48.265625v24c0 4.417969 3.582031 8 8 8h96c4.417969 0 8-3.582031 8-8v-24h8c4.417969 0 8-3.582031 8-8v-128c0-4.417969-3.582031-8-8-8zm-416-80h272v32h-272zm152 432v16h-192v-16zm-168-16v-16h144v16zm408-176h-80v-16h80zm16-32h-160.265625c-10.613281-.027344-20.792969 4.195312-28.277344 11.71875l-95.738281 95.738281c-7.523438 7.484375-11.746094 17.664063-11.71875 28.277344v40.265625h-112v-336h112v101.519531c0 3.234375 1.949219 6.152344 4.9375 7.390625 2.988281 1.238282 6.429688.554688 8.71875-1.734375l52.152344-52.144531c4.507812-4.488281 10.605468-7.015625 16.96875-7.03125h213.222656zm0 0" fill="#1e81ce"/><path d="m408 289.921875-6.585938 9.535156c-5.878906 8.503907-57.414062 84.054688-57.414062 116.542969 0 35.347656 28.652344 64 64 64s64-28.652344 64-64c0-32.488281-51.535156-108.039062-57.414062-116.542969zm0 174.078125c-26.5-.027344-47.972656-21.5-48-48 0-20.449219 30.304688-70.769531 48-97.664062 17.695312 26.886718 48 77.199218 48 97.664062-.027344 26.5-21.5 47.972656-48 48zm0 0" fill="#1e81ce"/></svg>