<svg height="480pt" viewBox="0 0 480 480" width="480pt" xmlns="http://www.w3.org/2000/svg"><g fill="#9bc9ff"><path d="m408 80h-32v192h32zm0 0"/><path d="m72 128c-35.347656 0-64 28.652344-64 64v96h96v-48c.027344-8.824219 7.175781-15.972656 16-16h32v-96zm0 0"/><path d="m328 128h48v96h-48zm0 0"/><path d="m408 104h64v144h-64zm0 0"/><path d="m256 40h-32v64h32zm0 0"/><path d="m328 120c0-8.835938-7.164062-16-16-16h-144c-8.835938 0-16 7.164062-16 16v112c0 8.835938 7.164062 16 16 16h144c8.835938 0 16-7.164062 16-16zm0 0"/></g><path d="m56 480c-30.914062-.035156-55.9648438-25.085938-56-56 0-28.183594 44.359375-93.222656 49.414062-100.542969l6.585938-9.535156 6.585938 9.535156c5.054687 7.320313 49.414062 72.359375 49.414062 100.542969-.035156 30.914062-25.085938 55.964844-56 56zm0-137.65625c-17.601562 26.902344-40 66.183594-40 81.65625 0 22.089844 17.910156 40 40 40s40-17.910156 40-40c0-15.480469-22.398438-54.753906-40-81.65625zm0 0" fill="#1e81ce"/><path d="m480 96h-64v-24h-48v48h-32c0-13.253906-10.746094-24-24-24h-48v-48h72v-24c0-13.253906-10.746094-24-24-24h-144c-13.253906 0-24 10.746094-24 24v24h72v48h-48c-13.253906 0-24 10.746094-24 24h-72c-39.746094.042969-71.9570312 32.253906-72 72v104h112v-56c0-4.417969 3.582031-8 8-8h24c0 13.253906 10.746094 24 24 24h144c13.253906 0 24-10.746094 24-24h32v48h48v-24h64zm-320-64v-8c0-4.417969 3.582031-8 8-8h144c4.417969 0 8 3.582031 8 8v8zm72 16h16v48h-16zm-112 168c-13.253906 0-24 10.746094-24 24v40h-80v-88c.035156-30.914062 25.085938-55.964844 56-56h72v80zm192 24h-144c-4.417969 0-8-3.582031-8-8v-112c0-4.417969 3.582031-8 8-8h144c4.417969 0 8 3.582031 8 8v112c0 4.417969-3.582031 8-8 8zm24-24v-80h32v80zm64 48h-16v-176h16zm64-24h-48v-128h48zm0 0" fill="#1e81ce"/></svg>