<svg height="481pt" viewBox="-16 0 481 481.27312" width="481pt" xmlns="http://www.w3.org/2000/svg"><g fill="#9bc9ff"><path d="m168.136719 339.511719v-154.238281h-128v224h128zm0 0"/><path d="m168.136719 124.792969 205.039062-54.960938-16.558593-61.839843-188.480469 50.480468v-33.121094l-128-.078124v160h128zm0 0"/><path d="m441.335938 266.3125-24.878907-92.71875-248.320312 66.558594v99.359375zm0 0"/><path d="m333.148438 295.335938 92.730468-24.84375 8.28125 30.910156-92.730468 24.84375zm0 0"/><path d="m184.136719 409.273438h-160v32h160zm0 0"/><path d="m200.136719 441.273438h-192v32h192zm0 0"/></g><path d="m449.066406 264.242188-24.882812-92.722657c-1.144532-4.265625-5.53125-6.800781-9.800782-5.65625l-238.246093 63.867188v-98.792969l199.113281-53.375c4.261719-1.144531 6.792969-5.527344 5.65625-9.792969l-16.570312-61.847656c-.546876-2.046875-1.886719-3.792969-3.71875-4.855469-1.84375-1.050781-4.023438-1.339844-6.074219-.800781l-178.40625 47.792969v-22.707032c0-4.417968-3.582031-8-8-8l-128-.078124c-4.417969 0-8 3.582031-8 8v376h-16v32h-16v48h208v-48h-16v-32h-16v-55.625l151.34375-40.542969 6.222656 23.199219c.9375 3.496093 4.105469 5.925781 7.722656 5.929687.699219 0 1.398438-.09375 2.078125-.273437l92.730469-24.847657c4.261719-1.144531 6.792969-5.527343 5.652344-9.792969l-6.222657-23.199218 7.746094-2.070313c4.265625-1.144531 6.800782-5.535156 5.65625-9.800781zm-101.976562 52.230468-4.144532-15.449218 77.277344-20.703126 4.136719 15.457032zm-298.953125-283.199218 112 .0625v25.136718c0 2.488282 1.15625 4.835938 3.128906 6.347656 1.972656 1.515626 4.539063 2.023438 6.941406 1.378907l180.753907-48.414063 12.414062 46.398438-197.308594 52.890625c-3.496094.9375-5.925781 4.101562-5.929687 7.71875v52.480469h-112zm144 432h-176v-16h176zm-160-32v-16h144v16zm16-32v-208h112v208zm128-154.976563 234.664062-62.902344 20.734375 77.261719-255.398437 68.441406zm0 0" fill="#1e81ce"/><path d="m392.136719 339.191406-6.585938 9.539063c-4.238281 6.144531-41.414062 60.648437-41.414062 84.542969 0 26.507812 21.488281 48 48 48 26.507812 0 48-21.492188 48-48 0-23.894532-37.175781-78.398438-41.417969-84.542969zm0 126.082032c-17.671875 0-32-14.328126-32-32 0-12.296876 17.601562-43.425782 32-65.601563 14.398437 22.183594 32 53.3125 32 65.601563 0 17.671874-14.328125 32-32 32zm0 0" fill="#1e81ce"/></svg>