<svg height="480pt" viewBox="0 0 480 480" width="480pt" xmlns="http://www.w3.org/2000/svg"><g fill="#9bc9ff"><path d="m296 408c0 35.347656 28.652344 64 64 64s64-28.652344 64-64v-224h-128zm0 0"/><path d="m56 408c0 35.347656 28.652344 64 64 64s64-28.652344 64-64v-224h-128zm0 0"/><path d="m40 184h160v-32h-160zm0 0"/><path d="m280 184h160v-32h-160zm0 0"/><path d="m264 120v32h192v-32zm0 0"/><path d="m24 120v32h192v-32zm0 0"/></g><path d="m440 16h40v-16h-40c-13.253906 0-24 10.746094-24 24v88h-112v-88c0-13.253906-10.746094-24-24-24h-80c-13.253906 0-24 10.746094-24 24v88h-112v-88c0-13.253906-10.746094-24-24-24h-40v16h40c4.417969 0 8 3.582031 8 8v88h-32v48h16v32h16v216c0 39.765625 32.234375 72 72 72s72-32.234375 72-72v-216h16v-32h16v-48h-32v-88c0-4.417969 3.582031-8 8-8h80c4.417969 0 8 3.582031 8 8v88h-32v48h16v32h16v216c0 39.765625 32.234375 72 72 72s72-32.234375 72-72v-216h16v-32h16v-48h-32v-88c0-4.417969 3.582031-8 8-8zm-264 392c0 30.929688-25.070312 56-56 56s-56-25.070312-56-56v-216h112zm16-232h-144v-16h144zm16-48v16h-176v-16zm208 280c0 30.929688-25.070312 56-56 56s-56-25.070312-56-56v-216h112zm16-232h-144v-16h144zm16-48v16h-176v-16zm0 0" fill="#1e81ce"/></svg>