<svg height="480pt" viewBox="0 0 480 480" width="480pt" xmlns="http://www.w3.org/2000/svg"><g fill="#9bc9ff"><path d="m32 429.335938c0 23.558593 21.488281 42.664062 48 42.664062s48-19.105469 48-42.664062v-245.335938h-96zm0 0"/><path d="m192 429.335938c0 23.558593 21.488281 42.664062 48 42.664062s48-19.105469 48-42.664062v-245.335938h-96zm0 0"/><path d="m352 429.335938c0 23.558593 21.488281 42.664062 48 42.664062s48-19.105469 48-42.664062v-245.335938h-96zm0 0"/><path d="m16 152v32h128v-32zm0 0"/><path d="m176 152v32h128v-32zm0 0"/><path d="m336 152v32h128v-32zm0 0"/></g><path d="m472 0h-8c-13.253906 0-24 10.746094-24 24v120h-80v-120c0-13.253906-10.746094-24-24-24h-32c-13.253906 0-24 10.746094-24 24v120h-80v-120c0-13.253906-10.746094-24-24-24h-32c-13.253906 0-24 10.746094-24 24v120h-80v-120c0-13.253906-10.746094-24-24-24h-8c-4.417969 0-8 3.582031-8 8s3.582031 8 8 8h8c4.417969 0 8 3.582031 8 8v120h-16v48h16v237.335938c0 27.9375 25.128906 50.664062 56 50.664062s56-22.726562 56-50.664062v-237.335938h16v-48h-16v-120c0-4.417969 3.582031-8 8-8h32c4.417969 0 8 3.582031 8 8v120h-16v48h16v237.335938c0 27.9375 25.128906 50.664062 56 50.664062s56-22.726562 56-50.664062v-237.335938h16v-48h-16v-120c0-4.417969 3.582031-8 8-8h32c4.417969 0 8 3.582031 8 8v120h-16v48h16v237.335938c0 27.9375 25.128906 50.664062 56 50.664062s56-22.726562 56-50.664062v-237.335938h16v-48h-16v-120c0-4.417969 3.582031-8 8-8h8c4.417969 0 8-3.582031 8-8s-3.582031-8-8-8zm-352 429.335938c0 19.113281-17.945312 34.664062-40 34.664062s-40-15.550781-40-34.664062v-237.335938h80zm16-253.335938h-112v-16h112zm144 253.335938c0 19.113281-17.945312 34.664062-40 34.664062s-40-15.550781-40-34.664062v-237.335938h80zm16-253.335938h-112v-16h112zm144 253.335938c0 19.113281-17.945312 34.664062-40 34.664062s-40-15.550781-40-34.664062v-237.335938h80zm16-253.335938h-112v-16h112zm0 0" fill="#1e81ce"/></svg>