<svg height="480pt" viewBox="0 0 480 480" width="480pt" xmlns="http://www.w3.org/2000/svg"><g fill="#9bc9ff"><path d="m8 128h128v128h-128zm0 0"/><path d="m424 56h-128v32h128zm0 0"/><path d="m456 88h-192v40h-64v128h64v56h192zm0 0"/><path d="m264 376c0 53.019531 42.980469 96 96 96s96-42.980469 96-96v-16h-192zm0 0"/><path d="m264 312h-16v48h224v-48zm0 0"/><path d="m200 112h-32v160h32zm0 0"/><path d="m168 96h-32v192h32zm0 0"/></g><path d="m480 304h-16v-216c0-4.417969-3.582031-8-8-8h-24v-32h-16v-48h-112v48h-16v32h-24c-4.417969 0-8 3.582031-8 8v32h-48v-16h-32v-16h-48v32h-128v144h128v32h48v-16h32v-16h48v40h-16v64h16v8c0 57.4375 46.5625 104 104 104s104-46.5625 104-104v-8h16zm-160-288h80v32h-80zm-16 48h112v16h-112zm-288 184v-112h112v112zm128 32v-176h16v176zm48-16h-16v-144h16zm72-16h-56v-112h56c4.417969 0 8-3.582031 8-8v-32h176v208h-176v-48c0-4.417969-3.582031-8-8-8zm184 128c0 48.601562-39.398438 88-88 88s-88-39.398438-88-88v-8h176zm16-24h-208v-32h208zm0 0" fill="#1e81ce"/></svg>