<svg height="480pt" viewBox="-56 0 480 480.08807" width="480pt" xmlns="http://www.w3.org/2000/svg"><g fill="#9bc9ff"><path d="m248.042969 424.089844v-76c-41.164063 16-86.832031 16-128 0v76zm0 0"/><path d="m144.042969 424.089844h80v48h-80zm0 0"/><path d="m248.042969 348.089844c85.039062-33.054688 130.921875-125.421875 105.882812-213.152344-25.042969-87.730469-112.765625-141.964844-202.4375-125.152344s-151.792969 99.144532-143.351562 189.988282c8.445312 90.84375 84.671875 160.3125 175.90625 160.316406 21.894531.011718 43.597656-4.058594 64-12zm-216-164c0-83.949219 68.054687-152 152-152 83.949219 0 152 68.050781 152 152 0 83.945312-68.050781 152-152 152-83.945313 0-152-68.054688-152-152zm0 0"/><path d="m200.042969 184.089844c0 8.835937-7.164063 16-16 16-8.835938 0-16-7.164063-16-16 0-8.839844 7.164062-16 16-16 8.835937 0 16 7.160156 16 16zm0 0"/><path d="m136.042969 248.089844h96v48h-96zm0 0"/></g><path d="m368.042969 184.089844c.046875-92.132813-68.054688-170.09375-159.355469-182.433594-91.300781-12.335938-177.652344 44.75-202.066406 133.585938-24.414063 88.835937 20.640625 182.035156 105.421875 218.085937v70.761719c0 4.417968 3.582031 8 8 8h16v40c0 4.417968 3.582031 8 8 8h80c4.417969 0 8-3.582032 8-8v-40h16c4.417969 0 8-3.582032 8-8v-70.761719c68.089843-28.613281 112.277343-95.382813 112-169.238281zm-152 280h-64v-32h64zm24-48h-112v-56.671875c.984375.308593 2 .527343 2.992187.796875 1.9375.585937 3.898438 1.097656 5.847656 1.601562 3.078126.816406 6.179688 1.550782 9.304688 2.199219 2.222656.464844 4.449219.914063 6.6875 1.296875 2.945312.496094 5.90625.878906 8.863281 1.230469 2.3125.28125 4.617188.609375 6.945313.800781 3.632812.296875 7.28125.417969 10.921875.503906 1.488281 0 2.949219.199219 4.4375.199219s2.953125-.167969 4.441406-.199219c3.640625-.085937 7.289063-.207031 10.917969-.503906 2.328125-.191406 4.632812-.519531 6.945312-.800781 2.960938-.351563 5.921875-.734375 8.863282-1.230469 2.242187-.382812 4.464843-.800781 6.6875-1.296875 3.128906-.648437 6.226562-1.382813 9.3125-2.199219 1.953124-.519531 3.898437-1.03125 5.832031-1.601562.992187-.304688 2.007812-.511719 3-.796875zm5.089843-75.457032c-4.855468 1.902344-9.808593 3.566407-14.816406 4.992188-25.164062 7.109375-51.625 8.328125-77.335937 3.558594-10.257813-1.894532-20.308594-4.757813-30.023438-8.550782-75.265625-29.382812-118.957031-108.179687-104.007812-187.582031 14.949219-79.402343 84.300781-136.917969 165.097656-136.917969s150.152344 57.515626 165.101563 136.917969c14.949218 79.402344-28.742188 158.199219-104.007813 187.582031zm0 0" fill="#1e81ce"/><path d="m320.042969 184.089844c0-23.632813-6.207031-46.847656-17.992188-67.328125-.101562-.226563-.101562-.457031-.222656-.671875-.183594-.238282-.382813-.460938-.59375-.671875-11.789063-20.035157-28.492187-36.734375-48.527344-48.523438-.207031-.207031-.429687-.40625-.664062-.589843-.214844-.121094-.445313-.121094-.671875-.226563-41.679688-23.988281-92.976563-23.988281-134.65625 0-.214844.105469-.453125.105469-.671875.226563-.230469.183593-.453125.382812-.664063.589843-20.039062 11.789063-36.738281 28.492188-48.527344 48.53125-.210937.207031-.40625.429688-.589843.664063-.121094.214844-.121094.445312-.226563.671875-24.0625 41.871093-23.996094 93.390625.175782 135.199219 0 .054687 0 .109374.050781.160156.519531.855468 1.199219 1.609375 2 2.214844l.335937.257812c1.339844.972656 2.949219 1.507812 4.605469 1.527344.242187 0 .488281-.074219.730469-.097656.238281-.023438.367187-.039063.550781-.070313.949219-.136719 1.871094-.441406 2.710937-.90625l27.710938-16c2.496094-1.417969 4.042969-4.066406 4.046875-6.9375.007813-2.867187-1.523437-5.523437-4.015625-6.953125-2.488281-1.429688-5.554688-1.417969-8.03125.035156l-20.535156 11.855469c-6.917969-14.054687-11.015625-29.328125-12.054688-44.957031h23.726563c4.417969 0 8-3.582032 8-8 0-4.421875-3.582031-8-8-8h-23.589844c1.011719-15.597656 5.089844-30.84375 12-44.867188l20.429687 11.792969c2.476563 1.453125 5.542969 1.464844 8.03125.035156 2.488282-1.429687 4.023438-4.082031 4.015626-6.953125-.007813-2.871094-1.550782-5.519531-4.046876-6.9375l-20.511718-11.839844c8.730468-12.984374 19.894531-24.152343 32.882812-32.878906l11.839844 20.503906c1.417969 2.496094 4.0625 4.039063 6.933594 4.042969 2.871094.007813 5.527344-1.523437 6.957031-4.011719 1.429687-2.492187 1.414063-5.554687-.035156-8.03125l-11.792969-20.425781c14.027344-6.917969 29.28125-11.003906 44.886719-12.023437v23.59375c0 4.417968 3.582031 8 8 8s8-3.582032 8-8v-23.59375c15.597656 1.015625 30.84375 5.089844 44.863281 12l-11.789062 20.425781c-1.453126 2.476563-1.464844 5.539063-.035157 8.027344 1.429688 2.492187 4.082031 4.023437 6.953125 4.015625 2.871094-.003906 5.519532-1.550782 6.9375-4.042969l11.839844-20.503906c12.984375 8.726562 24.152344 19.894531 32.878906 32.878906l-20.511718 11.839844c-2.496094 1.417969-4.039063 4.066406-4.046876 6.9375-.003906 2.871093 1.527344 5.523437 4.015626 6.953125 2.492187 1.429687 5.554687 1.417968 8.03125-.035156l20.433593-11.792969c6.917969 14.027343 11.003907 29.28125 12.023438 44.890625h-23.59375c-4.417969 0-8 3.578125-8 8 0 4.417968 3.582031 8 8 8h23.730469c-1.046876 15.617187-5.144532 30.882812-12.058594 44.925781l-20.535156-11.855469c-3.824219-2.171875-8.683594-.855468-10.882813 2.953125-2.199219 3.808594-.910156 8.679688 2.882813 10.902344l27.710937 16c1.839844 1.0625 4.023437 1.351563 6.078125.804687 2.050781-.550781 3.796875-1.894531 4.859375-3.730468 0-.050782 0-.105469.046875-.160156 11.902344-20.628907 18.167969-44.027344 18.167969-67.839844zm0 0" fill="#1e81ce"/><path d="m132.621094 223.015625 36.039062-20.800781c4.261719 3.734375 9.71875 5.816406 15.382813 5.875 13.257812 0 24-10.746094 24-24 0-13.257813-10.742188-24-24-24-13.253907 0-24 10.742187-24 24 .015625 1.460937.167969 2.917968.457031 4.351562l-35.878906 20.71875c-2.496094 1.417969-4.039063 4.066406-4.046875 6.9375-.007813 2.871094 1.527343 5.523438 4.015625 6.953125 2.488281 1.429688 5.554687 1.417969 8.03125-.035156zm51.421875-46.925781c4.417969 0 8 3.578125 8 8 0 4.417968-3.582031 8-8 8s-8-3.582032-8-8c.109375-4.375 3.628906-7.890625 8-8zm0 0" fill="#1e81ce"/><path d="m232.042969 240.089844h-96c-4.417969 0-8 3.578125-8 8v48c0 4.417968 3.582031 8 8 8h96c4.417969 0 8-3.582032 8-8v-48c0-4.421875-3.582031-8-8-8zm-8 48h-80v-32h80zm0 0" fill="#1e81ce"/><path d="m184.042969 24.089844c-88.363281 0-160 71.632812-160 160 0 88.363281 71.636719 160 160 160 88.367187 0 160-71.636719 160-160-.101563-88.324219-71.675781-159.898438-160-160zm0 304c-79.527344 0-144-64.472656-144-144 0-79.53125 64.472656-144 144-144 79.53125 0 144 64.46875 144 144-.089844 79.488281-64.507813 143.90625-144 144zm0 0" fill="#1e81ce"/></svg>