<svg height="480pt" viewBox="0 0 480.0402 480" width="480pt" xmlns="http://www.w3.org/2000/svg"><path d="m194.007812 97.214844c16.160157 29.679687 30 60.402344 30 78.800781.007813 36.605469-24.835937 68.546875-60.316406 77.554687-35.480468 9.007813-72.546875-7.21875-90.003906-39.394531l-18.320312 17.839844h.640624v240h112v-160h144v160h112v-240h.640626l-184.640626-179.519531zm0 0" fill="#9bc9ff"/><path d="m64.007812 177.9375-56 54.078125h47.359376l18.320312-17.839844c-6.082031-11.128906-9.402344-23.558593-9.679688-36.238281zm0 0" fill="#9bc9ff"/><path d="m328.007812 92.976562-88-84.960937-62.480468 60.402344c5.441406 9.117187 11.121094 18.878906 16.480468 28.796875l46-44.71875 184.640626 179.519531h47.359374l-80-77.28125zm0 0" fill="#9bc9ff"/><g fill="#1e81ce"><path d="m424.007812 480.015625h-368c-4.417968 0-8-3.582031-8-8v-232h-40c-3.261718.003906-6.203124-1.976563-7.425781-5.003906-1.222656-3.023438-.4843748-6.492188 1.867188-8.753907l56-54.074218c2.285156-2.242188 5.6875-2.902344 8.644531-1.683594 2.960938 1.21875 4.910156 4.082031 4.953125 7.285156.226563 11.402344 3.210937 22.582032 8.699219 32.582032 15.71875 28.933593 49.066406 43.515624 80.984375 35.410156 31.917969-8.105469 54.265625-36.832032 54.277343-69.761719 0-9.878906-5.03125-30.910156-29.023437-74.96875-4.527344-8.382813-9.710937-17.445313-16.328125-28.535156-1.890625-3.199219-1.332031-7.277344 1.351562-9.847657l62.480469-60.398437c3.101563-2.992187 8.011719-2.992187 11.113281 0l232 224c2.347657 2.269531 3.078126 5.738281 1.847657 8.765625-1.230469 3.023438-4.175781 4.996094-7.441407 4.984375h-40v232c0 4.417969-3.582031 8-8 8zm-360-16h352v-232c0-4.417969 3.582032-8 8-8h28.199219l-212.199219-204.871094-52.375 50.632813c5.230469 8.878906 9.550782 16.496094 13.414063 23.640625 20.824219 38.253906 30.960937 65.277343 30.960937 82.597656.007813 40.269531-27.316406 75.402344-66.347656 85.3125-39.027344 9.90625-79.804687-7.941406-99.003906-43.335937-3.964844-7.265626-6.871094-15.0625-8.632812-23.152344l-30.214844 29.175781h28.199218c4.417969 0 8 3.582031 8 8zm0 0"/><path d="m424.648438 240.015625c-2.089844.007813-4.101563-.804687-5.601563-2.261719l-179.039063-174.105468-40.421874 39.304687c-2.03125 2.089844-5.035157 2.910156-7.84375 2.144531-2.8125-.765625-4.984376-2.996094-5.671876-5.828125s.21875-5.8125 2.363282-7.78125l45.976562-44.726562c3.101563-3.019531 8.046875-3.019531 11.148438 0l184.640625 179.519531c2.332031 2.265625 3.058593 5.71875 1.839843 8.734375-1.21875 3.011719-4.140624 4.992187-7.390624 5zm0 0"/><path d="m55.367188 240.015625c-3.257813.011719-6.199219-1.960937-7.429688-4.980469-1.230469-3.019531-.507812-6.480468 1.832031-8.753906l18.320313-17.839844c3.164062-3.09375 8.238281-3.035156 11.332031.128906 3.089844 3.167969 3.03125 8.242188-.132813 11.332032l-18.320312 17.851562c-1.5 1.457032-3.507812 2.269532-5.601562 2.261719zm0 0"/><path d="m144.007812 264.015625c-47.773437-.011719-86.824218-38.121094-88-85.878906v-2.121094c0-46.121094 78.097657-159.734375 81.417969-164.542969l6.582031-9.542968 6.585938 9.550781c.160156.222656 16.191406 23.503906 33.789062 52.800781 6.753907 11.3125 12 20.558594 16.664063 29.117188 20.824219 38.273437 30.960937 65.296874 30.960937 82.617187-.058593 48.578125-39.421874 87.941406-88 88zm0-233.695313c-24.925781 37.425782-72 114.574219-72 145.695313v1.921875c.25 11.339844 3.234376 22.449219 8.695313 32.390625 15.699219 28.972656 49.0625 43.589844 81.003906 35.488281 31.941407-8.097656 54.304688-36.847656 54.300781-69.800781 0-9.878906-5.03125-30.910156-29.023437-74.96875-4.527344-8.382813-9.710937-17.445313-16.328125-28.535156-10.511719-17.503907-20.449219-32.808594-26.648438-42.191407zm0 0"/><path d="m144.007812 232.015625v-16c22.082032-.027344 39.972657-17.917969 40-40h16c-.035156 30.914063-25.085937 55.964844-56 56zm0 0"/><path d="m320.007812 480.015625h-160v-176h160zm-144-16h128v-144h-128zm0 0"/></g></svg>