<svg height="480pt" viewBox="0 0 480 480" width="480pt" xmlns="http://www.w3.org/2000/svg"><g fill="#9bc9ff"><path d="m320 192c-8.835938 0-16-7.164062-16-16v-40h-128v40c0 8.835938-7.164062 16-16 16h-24v128h88.054688l-.054688-48 40 48h80v-128zm0 0"/><path d="m176 8h128v64h-128zm0 0"/><path d="m8 192h64v128h-64zm0 0"/><path d="m408 192h64v128h-64zm0 0"/><path d="m136 176h-32v160h32zm0 0"/><path d="m104 160h-32v192h32zm0 0"/><path d="m344 176v160h32v-160zm0 0"/><path d="m408 160h-32v192h32zm0 0"/><path d="m320 136v-32h-160v32zm0 0"/><path d="m336 104v-32h-192v32zm0 0"/></g><path d="m240 480c-26.5-.027344-47.972656-21.5-48-48 0-23.894531 37.175781-78.398438 41.414062-84.542969l6.585938-9.535156 6.585938 9.535156c4.238281 6.144531 41.414062 60.648438 41.414062 84.542969-.027344 26.5-21.5 47.972656-48 48zm0-113.601562c-14.398438 22.195312-32 53.3125-32 65.601562 0 17.671875 14.328125 32 32 32s32-14.328125 32-32c0-12.296875-17.601562-43.414062-32-65.601562zm0 0" fill="#1e81ce"/><path d="m480 184h-64v-32h-48v16h-32v16h-16c-4.417969 0-8-3.582031-8-8v-32h16v-32h16v-48h-32v-64h-144v64h-32v48h16v32h16v32c0 4.417969-3.582031 8-8 8h-16v-16h-32v-16h-48v32h-64v144h64v32h48v-16h32v-16h88.0625v-33.871094l28.183594 33.871094h75.753906v16h32v16h48v-32h64zm-296-168h112v48h-112zm-32 64h176v16h-176zm16 32h144v16h-144zm-152 200v-112h48v112zm64 32v-176h16v176zm32-16v-144h16v144zm155.753906-16-51.753906-62.128906.046875 62.128906h-72.046875v-112h16c13.253906 0 24-10.746094 24-24v-32h112v32c0 13.253906 10.746094 24 24 24h16v112zm84.246094 16v-144h16v144zm48 16h-16v-176h16zm64-32h-48v-112h48zm0 0" fill="#1e81ce"/></svg>