<svg height="483pt" viewBox="-37 0 483 483.072" width="483pt" xmlns="http://www.w3.org/2000/svg"><path d="m274.835938 45.871094-106.800782 106.722656v-109.523438h-128v368h128v-70.894531c0-4.242187 1.6875-8.3125 4.6875-11.3125l77.601563-77.597656-34.289063-32.195313h66.480469l82.800781-82.71875zm0 0" fill="#9bc9ff"/><path d="m24.035156 411.070312v32h160v-32zm0 0" fill="#9bc9ff"/><path d="m184.035156 43.070312v-32h-160v32zm0 0" fill="#9bc9ff"/><path d="m376.035156 147.070312 22.640625-22.636718-113.121093-113.121094-22.640626 22.640625 11.921876 11.917969zm0 0" fill="#9bc9ff"/><path d="m8.035156 443.070312v32h192v-32zm0 0" fill="#9bc9ff"/><g fill="#1e81ce"><path d="m176.035156 419.070312h-144v-384h144v98.21875l98.800782-98.730468 101.800781 101.792968-90.808594 90.71875h-49.550781l25.597656 24-83.496094 83.457032c-1.5 1.5-2.34375 3.535156-2.34375 5.65625zm-128-16h112v-62.886718c-.015625-6.367188 2.515625-12.480469 7.03125-16.96875l71.792969-71.800782-43.0625-40.34375h83.4375l74.792969-74.71875-79.160156-79.199218-114.832032 114.71875v-120.800782h-112zm0 0"/><path d="m192.035156 451.070312h-176v-48h176zm-160-16h144v-16h-144zm0 0"/><path d="m192.035156 51.070312h-176v-48h176zm-160-16h144v-16h-144zm0 0"/><path d="m376.035156 158.382812-124.429687-124.429687 33.949219-33.953125 124.433593 124.433594zm-101.808594-124.429687 101.808594 101.808594 11.328125-11.328125-101.808593-101.808594zm0 0"/><path d="m208.035156 483.070312h-207.9999998v-48h207.9999998zm-192-16h176v-16h-176zm0 0"/><path d="m296.035156 483.070312c-35.328125-.039062-63.960937-28.667968-64-64 0-32.300781 51.367188-114.941406 57.226563-124.253906l6.773437-10.777344 6.777344 10.777344c5.855469 9.3125 57.222656 91.953125 57.222656 124.253906-.039062 35.332032-28.667968 63.960938-64 64zm0-168.695312c-17.78125 29.601562-48 84.183594-48 104.695312 0 26.511719 21.492188 48 48 48 26.511719 0 48-21.488281 48-48 0-20.527343-30.214844-75.109374-48-104.695312zm0 0"/></g></svg>