<svg height="480pt" viewBox="0 0 480 480" width="480pt" xmlns="http://www.w3.org/2000/svg"><path d="m272.742188 312 15.257812 64-79.894531-64h-136.105469v128h336v-128zm0 0" fill="#9bc9ff"/><path d="m72 296h-32v160h32zm0 0" fill="#9bc9ff"/><path d="m40 280h-32v192h32zm0 0" fill="#9bc9ff"/><path d="m408 296v160h32v-160zm0 0" fill="#9bc9ff"/><path d="m440 296v176h32v-192h-32zm0 0" fill="#9bc9ff"/><g fill="#1e81ce"><path d="m240 256c4.417969 0 8-3.582031 8-8v-48c0-4.417969-3.582031-8-8-8s-8 3.582031-8 8v48c0 4.417969 3.582031 8 8 8zm0 0"/><path d="m240 160c4.417969 0 8-3.582031 8-8v-48c0-4.417969-3.582031-8-8-8s-8 3.582031-8 8v48c0 4.417969 3.582031 8 8 8zm0 0"/><path d="m240 64c4.417969 0 8-3.582031 8-8v-48c0-4.417969-3.582031-8-8-8s-8 3.582031-8 8v48c0 4.417969 3.582031 8 8 8zm0 0"/><path d="m173.089844 272.398438c2.007812 2.082031 4.980468 2.914062 7.777344 2.183593 2.796874-.734375 4.980468-2.917969 5.714843-5.714843.730469-2.796876-.101562-5.769532-2.183593-7.777344l-33.933594-33.9375c-3.140625-3.03125-8.128906-2.988282-11.214844.097656s-3.128906 8.074219-.097656 11.214844zm0 0"/><path d="m105.199219 204.519531c3.140625 3.03125 8.128906 2.988281 11.214843-.097656 3.085938-3.085937 3.128907-8.074219.097657-11.214844l-33.9375-33.941406c-3.136719-3.035156-8.125-2.988281-11.210938.097656-3.085937 3.085938-3.132812 8.074219-.097656 11.210938zm0 0"/><path d="m37.328125 136.640625c3.140625 3.03125 8.128906 2.988281 11.214844-.097656 3.085937-3.085938 3.128906-8.074219.097656-11.214844l-33.945313-33.945313c-2.007812-2.078124-4.980468-2.914062-7.78125-2.179687-2.796874.730469-4.980468 2.914063-5.710937 5.710937-.734375 2.800782.101563 5.773438 2.179687 7.78125zm0 0"/><path d="m301.257812 274.742188c2.121094.007812 4.15625-.835938 5.652344-2.34375l33.9375-33.933594c3.03125-3.140625 2.988282-8.128906-.097656-11.214844s-8.074219-3.128906-11.214844-.097656l-33.933594 33.9375c-2.289062 2.285156-2.972656 5.726562-1.734374 8.714844 1.238281 2.988281 4.152343 4.9375 7.390624 4.9375zm0 0"/><path d="m369.144531 206.863281c2.121094 0 4.15625-.84375 5.65625-2.34375l33.933594-33.945312c3.035156-3.136719 2.988281-8.125-.097656-11.210938-3.085938-3.085937-8.074219-3.132812-11.210938-.097656l-33.9375 33.941406c-2.289062 2.289063-2.972656 5.730469-1.734375 8.71875 1.238282 2.988281 4.15625 4.9375 7.390625 4.9375zm0 0"/><path d="m437.015625 138.984375c2.121094 0 4.15625-.84375 5.65625-2.34375l33.945313-33.945313c2.078124-2.007812 2.914062-4.980468 2.179687-7.78125-.730469-2.796874-2.914063-4.980468-5.710937-5.710937-2.800782-.734375-5.773438.101563-7.78125 2.179687l-33.945313 33.945313c-2.285156 2.289063-2.972656 5.726563-1.734375 8.71875 1.238281 2.988281 4.15625 4.9375 7.390625 4.9375zm0 0"/><path d="m432 272v16h-32v16h-137.382812l12.207031 51.199219-63.914063-51.199219h-130.910156v-16h-32v-16h-48v208h48v-16h32v-16h320v16h32v16h48v-208zm-416 192v-176h16v176zm32-16v-144h16v144zm32-16v-112h125.289062l95.886719 76.800781-18.296875-76.800781h117.121094v112zm336 16v-144h16v144zm48 16h-16v-176h16zm0 0"/></g></svg>