<svg height="480pt" viewBox="0 0 480 480.05661" width="480pt" xmlns="http://www.w3.org/2000/svg"><g fill="#9bc9ff"><path d="m8.027344 328.054688h64v128h-64zm0 0"/><path d="m296.027344 328.054688h-160v128h208v-128zm0 0"/><path d="m136.027344 304.054688h-32v168h32zm0 0"/><path d="m72.027344 320.054688v144h32v-144zm0 0"/><path d="m408.027344 328.054688h64v128h-64zm0 0"/><path d="m376.027344 304.054688h-32v168h32zm0 0"/><path d="m408.027344 320.054688h-32v144h32zm0 0"/><path d="m225.828125 191.257812c-.183594-.371093-.414063-.714843-.566406-1.089843.160156.382812.367187.730469.566406 1.089843zm0 0"/><path d="m244.972656 199.191406c-.613281.222656-1.242187.410156-1.878906.554688.636719-.148438 1.261719-.332032 1.878906-.554688zm0 0"/><path d="m233.917969 198.824219c-.386719-.160157-.738281-.390625-1.105469-.574219.367188.207031.710938.414062 1.105469.574219zm0 0"/><path d="m254.796875 190.175781c-.152344.375-.382813.722657-.570313 1.089844.203126-.367187.410157-.714844.570313-1.089844zm0 0"/><path d="m255.714844 187.121094c-.144532.632812-.328125 1.253906-.550782 1.863281.222657-.609375.410157-1.230469.550782-1.863281zm0 0"/><path d="m247.226562 198.25c-.367187.183594-.71875.414062-1.101562.574219.40625-.160157.75-.367188 1.101562-.574219zm0 0"/><path d="m236.972656 199.746094c2.015625.414062 4.09375.414062 6.113282 0-2.019532.390625-4.09375.390625-6.113282 0zm0 0"/><path d="m255.714844 187.113281c.203125-1.007812.308594-2.03125.3125-3.058593-.019532-1.675782-.3125-3.339844-.863282-4.925782.851563 2.574219 1.042969 5.316406.550782 7.984375zm0 0"/><path d="m224.890625 179.128906c-.550781 1.585938-.84375 3.25-.863281 4.925782.023437 1.679687.316406 3.34375.863281 4.929687-1.03125-3.203125-1.03125-6.652344 0-9.855469zm0 0"/><path d="m272.027344 260.054688c66.546875-16.898438 108.480468-82.636719 95.746094-150.105469-12.734376-67.472657-75.738282-113.40625-143.871094-104.890625-68.128906 8.519531-117.890625 68.546875-113.621094 137.074218 4.265625 68.53125 61.085938 121.921876 129.746094 121.921876 10.792968.023437 21.546875-1.320313 32-4zm-72-28c-38.699219-16.214844-63.914063-54.039063-64-96-.023438-48.660157 33.695312-90.835938 81.171875-101.515626 47.476562-10.683593 96.011719 12.984376 116.832031 56.96875 20.816406 43.984376 8.355469 96.523438-30.003906 126.46875-29.570313 23.148438-69.335938 28.53125-104 14.078126zm0 0"/><path d="m244.957031 168.921875c-1.585937-.550781-3.25-.839844-4.929687-.867187-1.023438.007812-2.046875.113281-3.054688.3125 2.664063-.488282 5.410156-.296876 7.984375.554687zm0 0"/><path d="m236.964844 199.746094c-.636719-.144532-1.265625-.332032-1.878906-.554688.613281.222656 1.242187.40625 1.878906.554688zm0 0"/><path d="m254.234375 176.855469c.179687.359375.410156.707031.5625 1.074219-.160156-.367188-.367187-.703126-.5625-1.074219zm0 0"/><path d="m246.148438 169.289062c.367187.152344.710937.382813 1.070312.566407-.359375-.199219-.695312-.40625-1.070312-.566407zm0 0"/><path d="m232.828125 169.855469c.367187-.183594.710937-.414063 1.082031-.566407-.378906.160157-.714844.367188-1.082031.566407zm0 0"/><path d="m235.109375 168.914062c.605469-.21875 1.226563-.398437 1.855469-.546874-.628906.144531-1.25.328124-1.855469.546874zm0 0"/><path d="m225.261719 177.9375c.152343-.367188.382812-.710938.558593-1.074219-.191406.363281-.398437.699219-.558593 1.074219zm0 0"/><path d="m225.828125 191.257812c1.539063 3 3.984375 5.441407 6.984375 6.984376.367188.183593.71875.414062 1.105469.574218.382812.160156.796875.238282 1.167969.367188.613281.222656 1.242187.40625 1.878906.554687 2.019531.390625 4.09375.390625 6.113281 0 .636719-.148437 1.261719-.332031 1.878906-.554687.390625-.128906.800781-.214844 1.167969-.367188s.734375-.390625 1.101562-.574218c3.003907-1.542969 5.445313-3.984376 6.984376-6.984376.183593-.371093.417968-.714843.570312-1.089843s.238281-.800781.367188-1.191407c.222656-.609374.40625-1.230468.550781-1.863281.492187-2.671875.304687-5.421875-.550781-8-.128907-.394531-.207032-.800781-.367188-1.191406-.160156-.394531-.386719-.714844-.5625-1.074219-1.539062-3.015625-3.996094-5.46875-7.015625-7.007812-.359375-.183594-.703125-.414063-1.070313-.566406-.367187-.152344-.800781-.242188-1.191406-.367188-2.578125-.855469-5.332031-1.046875-8-.554688-.628906.148438-1.25.328126-1.855468.546876-.402344.132812-.800782.214843-1.203126.375-.398437.160156-.710937.382812-1.078124.566406-3.015626 1.542968-5.464844 3.996094-7.007813 7.007812-.175781.359375-.410156.703125-.5625 1.074219-.148437.367187-.238281.796875-.367187 1.191406-1.03125 3.203125-1.03125 6.652344 0 9.855469.128906.390625.210937.800781.367187 1.191406.160156.390625.394531.738282.59375 1.097656zm0 0"/><path d="m254.234375 176.855469c-1.445313-3.082031-3.929687-5.5625-7.015625-7.007813 3.019531 1.539063 5.476562 3.992188 7.015625 7.007813zm0 0"/><path d="m247.226562 198.25c3.070313-1.449219 5.539063-3.917969 6.984376-6.984375-1.539063 3-3.980469 5.441406-6.984376 6.984375zm0 0"/><path d="m224.890625 188.984375c.128906.398437.210937.800781.371094 1.191406-.160157-.382812-.242188-.800781-.371094-1.191406zm0 0"/><path d="m233.910156 169.289062c.382813-.160156.796875-.242187 1.199219-.375-.402344.125-.808594.214844-1.199219.375zm0 0"/><path d="m232.828125 169.855469c-3.082031 1.449219-5.558594 3.929687-7.007813 7.007812 1.542969-3.011719 3.992188-5.464843 7.007813-7.007812zm0 0"/><path d="m246.140625 198.824219c-.367187.152343-.800781.242187-1.167969.367187.390625-.125.792969-.207031 1.167969-.367187zm0 0"/><path d="m255.164062 188.984375c-.128906.390625-.207031.800781-.367187 1.191406.160156-.390625.238281-.800781.367187-1.191406zm0 0"/><path d="m254.796875 177.9375c.160156.382812.238281.800781.367187 1.191406-.128906-.390625-.207031-.800781-.367187-1.191406zm0 0"/><path d="m235.085938 199.191406c-.394532-.125-.800782-.214844-1.167969-.367187.375.160156.773437.242187 1.167969.367187zm0 0"/><path d="m244.957031 168.921875c.390625.125.800781.207031 1.191407.367187-.390626-.160156-.792969-.242187-1.191407-.367187zm0 0"/><path d="m224.890625 179.128906c.128906-.390625.210937-.800781.371094-1.191406-.160157.390625-.242188.800781-.371094 1.191406zm0 0"/><path d="m225.828125 191.257812c1.445313 3.066407 3.914063 5.535157 6.984375 6.984376-3-1.542969-5.445312-3.984376-6.984375-6.984376zm0 0"/><path d="m272.027344 260.054688c-21 5.335937-43 5.335937-64 0v36h64zm0 0"/><path d="m296.027344 296.054688h-112v32h112zm0 0"/></g><path d="m283.085938 239.449219c53.15625-22.140625 80.863281-80.980469 64.070312-136.058594-16.796875-55.082031-72.621094-88.449219-129.089844-77.160156-56.464844 11.289062-95.167968 63.554687-89.496094 120.859375 5.671876 57.304687 53.875 100.96875 111.457032 100.964844 14.785156.050781 29.429687-2.875 43.058594-8.605469zm-102.136719-27.785157c-33.972657-26.667968-45.875-72.789062-29.046875-112.5625 16.828125-39.777343 58.210937-63.355468 101.007812-57.550781 42.796875 5.804688 76.402344 39.558594 82.023438 82.378907 5.621094 42.824218-18.136719 84.105468-57.984375 100.757812-23.632813 9.808594-50.199219 9.808594-73.832031 0-7.945313-3.316406-15.402344-7.699219-22.167969-13.023438zm0 0" fill="#1e81ce"/><path d="m240.027344 72.054688c35.332031.042968 63.960937 28.671874 64 64 0 4.421874 3.582031 8 8 8 4.417968 0 8-3.578126 8-8 0-44.179688-35.816406-80-80-80s-80 35.820312-80 80c0 4.421874 3.582031 8 8 8 4.417968 0 8-3.578126 8-8 .039062-35.328126 28.671875-63.957032 64-64zm0 0" fill="#1e81ce"/><path d="m229.628906 205.570312c.390625.191407.742188.4375 1.152344.613282.742188.3125 1.542969.480468 2.3125.722656.765625.238281 1.460938.519531 2.238281.671875.175781 0 .367188 0 .542969.054687 2.765625.566407 5.621094.566407 8.386719 0 .175781 0 .367187 0 .542969-.054687.761718-.1875 1.515624-.414063 2.253906-.679687.800781-.234376 1.554687-.410157 2.296875-.714844.425781-.183594.800781-.445313 1.226562-.65625 1-.460938 1.96875-.996094 2.894531-1.597656.160157-.105469.289063-.257813.449219-.367188 1.105469-.765625 2.148438-1.621094 3.109375-2.5625.878906-.914062 1.679688-1.894531 2.402344-2.933594.160156-.226562.367188-.410156.519531-.632812.53125-.847656 1.011719-1.730469 1.429688-2.640625.257812-.503907.578125-.96875.800781-1.488281.226562-.519532.394531-1.265626.59375-1.894532 1.691406-4.75 1.691406-9.941406 0-14.691406-.207031-.644531-.351562-1.324219-.617188-1.957031-.207031-.503907-.519531-.953125-.757812-1.433594-.429688-.929687-.921875-1.832031-1.472656-2.695313-.105469-.160156-.25-.289062-.359375-.449218-.769531-1.105469-1.625-2.148438-2.5625-3.117188-.167969-.167968-.367188-.273437-.535157-.433594-4.4375-4.222656-10.324218-6.574218-16.449218-6.578124-3.5625.015624-7.078125.835937-10.277344 2.402343l-34.976562-34.976562c-3.140626-3.03125-8.128907-2.988281-11.214844.097656-3.085938 3.085937-3.128906 8.074219-.097656 11.214844l34.96875 34.984375c-.167969.34375-.394532.65625-.539063 1.007812-.253906.617188-.390625 1.28125-.597656 1.910156-.804688 2.375-1.230469 4.855469-1.265625 7.359376.035156 2.492187.460937 4.964843 1.265625 7.320312.207031.648438.34375 1.328125.605469 1.960938.203124.472656.496093.898437.722656 1.351562.441406.957031.949218 1.886719 1.511718 2.777344 0 .0625.09375.113281.136719.167968.820313 1.214844 1.753907 2.347657 2.78125 3.390626 1.078125 1.0625 2.246094 2.023437 3.496094 2.875l.074219.054687c.960937.609375 1.96875 1.148437 3.007812 1.617187zm8-29.027343c1.539063-.621094 3.261719-.621094 4.800782 0 .214843.074219.453124.050781.664062.136719.960938.402343 1.835938.984374 2.574219 1.722656.113281.109375.160156.277344.265625.398437.605468.636719 1.097656 1.371094 1.453125 2.175781.050781.113282 0 .238282.074219.351563.726562 1.769531.726562 3.753906 0 5.519531 0 .089844 0 .199219-.054688.28125-.398438.964844-.984375 1.84375-1.722656 2.582032-3.136719 2.957031-8.027344 2.988281-11.199219.066406-.144531-.144532-.230469-.320313-.359375-.464844-.605469-.636719-1.097656-1.371094-1.457031-2.175781-.046875-.113281 0-.238281-.070313-.351563-.726562-1.769531-.726562-3.753906 0-5.519531 0-.089844 0-.199219.054688-.28125.800781-1.949219 2.347656-3.5 4.296875-4.304687.207031-.085938.445312-.0625.679687-.136719zm0 0" fill="#1e81ce"/><path d="m480.027344 320.054688h-64v-8h-32v-16h-48v24h-32v-32h-24v-22.070313c64.324218-19.792969 104.496094-83.65625 94.488281-150.210937-10.007813-66.550782-67.1875-115.773438-134.488281-115.773438-67.300782 0-124.476563 49.222656-134.488282 115.773438-10.007812 66.554687 30.164063 130.417968 94.488282 150.210937v22.070313h-24v32h-32v-24h-48v16h-32v8h-64.0000002v144h64.0000002v8h32v8h48v-16h192v16h48v-8h32v-8h64zm-360-184c-.09375-48.667969 29.167968-92.597657 74.113281-111.265626 44.949219-18.667968 96.71875-8.398437 131.136719 26.019532 34.414062 34.414062 44.6875 86.183594 26.019531 131.132812-18.671875 44.949219-62.597656 74.210938-111.269531 74.113282-5.082032.003906-10.15625-.308594-15.199219-.933594-4.988281-.617188-9.933594-1.554688-14.800781-2.808594-53.003906-13.6875-90.03125-61.511719-90-116.257812zm96 133.914062c.527344.097656 1.082031.128906 1.601562.214844 2.910156.476562 5.84375.855468 8.800782 1.144531.871093.089844 1.734374.175781 2.605468.25 3.640625.277344 7.289063.476563 10.976563.476563s7.34375-.199219 10.976562-.476563c.871094-.074219 1.734375-.160156 2.609375-.25 2.957032-.289063 5.890625-.671875 8.796875-1.152344.53125-.078125 1.074219-.109375 1.601563-.207031v18.085938h-47.96875zm-24 34.085938h96v16h-96zm-176 144v-112h48v112zm64 8v-128h16v128zm32 8v-152h16v152zm32-16v-112h192v112zm208-136h16v152h-16zm32 16h16v128h-16zm80 120h-48v-112h48zm0 0" fill="#1e81ce"/></svg>