<svg height="480pt" viewBox="0 -68 480 480" width="480pt" xmlns="http://www.w3.org/2000/svg"><g fill="#9bc9ff"><path d="m304 176v-40h-128v40h-40v128h208v-128zm0 0"/><path d="m176 8h128v64h-128zm0 0"/><path d="m8 176h64v128h-64zm0 0"/><path d="m136 160h-32v160h32zm0 0"/><path d="m320 136v-32h-160v32zm0 0"/><path d="m336 104v-32h-192v32zm0 0"/><path d="m104 144h-32v192h32zm0 0"/><path d="m408 176h64v128h-64zm0 0"/><path d="m344 160v160h32v-160zm0 0"/><path d="m408 144h-32v192h32zm0 0"/></g><path d="m480 168h-64v-32h-48v16h-32v16h-24v-24h16v-32h16v-48h-32v-64h-144v64h-32v48h16v32h16v24h-24v-16h-32v-16h-48v32h-64v144h64v32h48v-16h32v-16h192v16h32v16h48v-32h64zm-416 128h-48v-112h48zm32 32h-16v-176h16zm32-16h-16v-144h16zm184-184h-144v-16h144zm-128-112h112v48h-112zm-32 80v-16h176v16zm184 200h-192v-112h32c4.417969 0 8-3.582031 8-8v-32h112v32c0 4.417969 3.582031 8 8 8h32zm32 16h-16v-144h16zm32 16h-16v-176h16zm64-32h-48v-112h48zm0 0" fill="#1e81ce"/></svg>