<svg height="480pt" viewBox="0 -135 480 479" width="480pt" xmlns="http://www.w3.org/2000/svg"><g fill="#9bc9ff"><path d="m8 40.5h240v128h-240zm0 0"/><path d="m248 24.5v160h32v-160zm0 0"/><path d="m312 8.5h-32v192h32zm0 0"/></g><path d="m472 24.5c-4.417969 0-8 3.582031-8 8h-16c0-4.417969-3.582031-8-8-8s-8 3.582031-8 8h-16c0-4.417969-3.582031-8-8-8s-8 3.582031-8 8h-16c0-4.417969-3.582031-8-8-8s-8 3.582031-8 8h-16c0-4.417969-3.582031-8-8-8s-8 3.582031-8 8h-16v-32h-48v16h-32v16h-240v144h240v16h32v16h48v-32h16c0 4.417969 3.582031 8 8 8s8-3.582031 8-8h16c0 4.417969 3.582031 8 8 8s8-3.582031 8-8h16c0 4.417969 3.582031 8 8 8s8-3.582031 8-8h16c0 4.417969 3.582031 8 8 8s8-3.582031 8-8h16c0 4.417969 3.582031 8 8 8s8-3.582031 8-8v-144c0-4.417969-3.582031-8-8-8zm-456 136v-112h224v112zm240 16v-144h16v144zm48 16h-16v-176h16zm16-32v-112h16v112zm32 0v-112h16v112zm32 0v-112h16v112zm32 0v-112h16v112zm32 0v-112h16v112zm0 0" fill="#1e81ce"/></svg>