<svg height="480pt" viewBox="-16 0 480 480" width="480pt" xmlns="http://www.w3.org/2000/svg"><g fill="#9bc9ff"><path d="m280 304v40h128v-152c0-8.835938-7.164062-16-16-16h-152v128zm0 0"/><path d="m40 288c0 8.835938 7.164062 16 16 16h152v-128h-40v-40h-128zm0 0"/><path d="m40 8h128v64h-128zm0 0"/><path d="m24 136h160v-32h-160zm0 0"/><path d="m184 104h16v-32h-192v32zm0 0"/><path d="m280 408h128v64h-128zm0 0"/><path d="m264 344v32h160v-32zm0 0"/><path d="m248 376v32h192v-32zm0 0"/><path d="m208 320h32v-160h-32zm0 0"/></g><path d="m448 368h-16v-32h-16v-144c0-13.253906-10.746094-24-24-24h-144v-16h-48v16h-24v-24h16v-32h16v-48h-32v-64h-144v64h-32v48h16v32h16v144c0 13.253906 10.746094 24 24 24h144v16h48v-16h24v24h-16v32h-16v48h32v64h144v-64h32zm-400-352h112v48h-112zm-32 64h176v16h-176zm160 32v16h-144v-16zm-120 184c-4.417969 0-8-3.582031-8-8v-144h112v32c0 4.417969 3.582031 8 8 8h32v112zm176 16h-16v-144h16zm48-16h-32v-112h144c4.417969 0 8 3.582031 8 8v144h-112v-32c0-4.417969-3.582031-8-8-8zm-8 56h144v16h-144zm128 112h-112v-48h112zm32-64h-176v-16h176zm0 0" fill="#1e81ce"/></svg>