<svg height="480pt" viewBox="0 0 480 480" width="480pt" xmlns="http://www.w3.org/2000/svg"><g fill="#9bc9ff"><path d="m328 248c0 8.835938-7.164062 16-16 16h-88c-8.835938 0-16-7.164062-16-16v-24h-128v16c-.011719 62.410156 44.988281 115.730469 106.511719 126.207031 7.746093 1.230469 13.457031 7.894531 13.488281 15.738281v90.054688h128v-88.894531c.097656-8.257813 6.398438-15.113281 14.617188-15.90625 64.625-7.425781 113.402343-62.148438 113.382812-127.199219v-16h-128zm0 0"/><path d="m328 40h128v152h-128zm0 0"/><path d="m208 120c0-53.019531-42.980469-96-96-96h-72v128h24c8.835938 0 16 7.164062 16 16v24h128zm0 0"/><path d="m224 224v-32h-160v32zm0 0"/><path d="m312 192v32h160v-32zm0 0"/><path d="m312 40h160v-32h-160zm0 0"/><path d="m40 8h-32v160h32zm0 0"/></g><path d="m480 48v-48h-176v48h16v136h-16v48h16v16c0 4.417969-3.582031 8-8 8h-88c-4.417969 0-8-3.582031-8-8v-16h16v-48h-16v-64c-.066406-57.410156-46.589844-103.933594-104-104h-64v-16h-48v176h48v-16h16c4.417969 0 8 3.582031 8 8v16h-16v48h16v8c-.195312 66.375 47.703125 123.128906 113.167969 134.089844 3.894531.59375 6.785156 3.917968 6.832031 7.855468v98.054688h144v-96.894531c.054688-4.214844 3.320312-7.6875 7.519531-8 68.6875-7.816407 120.550781-65.976563 120.480469-135.105469v-8h16v-48h-16v-136zm-160-32h144v16h-144zm-304 144v-144h16v144zm48-16h-16v-112h64c48.578125.058594 87.941406 39.421875 88 88v64h-112v-16c0-13.253906-10.746094-24-24-24zm8 56h144v16h-144zm376 40c.070312 60.988281-45.679688 112.300781-106.28125 119.199219-12.269531 1.277343-21.621094 11.570312-21.71875 23.90625v80.894531h-112v-82.054688c-.03125-11.75-8.5625-21.746093-20.160156-23.625-57.757813-9.679687-100.015625-59.757812-99.839844-118.320312v-8h112v16c0 13.253906 10.746094 24 24 24h88c13.253906 0 24-10.746094 24-24v-16h112zm16-24h-144v-16h144zm-16-32h-112v-136h112zm0 0" fill="#1e81ce"/></svg>