<svg height="480pt" viewBox="0 0 480 480" width="480pt" xmlns="http://www.w3.org/2000/svg"><g fill="#9bc9ff"><path d="m24 312c0 88.367188 71.632812 160 160 160h56c88.367188 0 160-71.632812 160-160v-72h-128v80c0 26.507812-21.492188 48-48 48h-24c-26.507812 0-48-21.492188-48-48v-80h-128zm0 0"/><path d="m24 40h128v168h-128zm0 0"/><path d="m400 152h40v-128h-152c-8.835938 0-16 7.164062-16 16v168h128zm0 0"/><path d="m440 168h32v-160h-32zm0 0"/><path d="m168 40v-32h-160v32zm0 0"/><path d="m152 240h16v-32h-160v32zm0 0"/><path d="m416 240v-32h-160v32zm0 0"/></g><path d="m432 0v16h-144c-13.253906 0-24 10.746094-24 24v160h-16v48h16v72c-.027344 22.082031-17.917969 39.972656-40 40h-24c-22.082031-.027344-39.972656-17.917969-40-40v-72h16v-48h-16v-152h16v-48h-176v48h16v152h-16v48h16v64c.101562 92.742188 75.257812 167.898438 168 168h56c92.742188-.101562 167.898438-75.257812 168-168v-64h16v-48h-16v-40h24v16h48v-176zm-416 16h144v16h-144zm16 32h112v152h-112zm-16 168h144v16h-144zm376 96c-.09375 83.910156-68.089844 151.90625-152 152h-56c-83.910156-.09375-151.90625-68.089844-152-152v-64h112v72c.035156 30.914062 25.085938 55.964844 56 56h24c30.914062-.035156 55.964844-25.085938 56-56v-72h112zm16-80h-144v-16h144zm-8-88c-4.417969 0-8 3.582031-8 8v48h-112v-160c0-4.417969 3.582031-8 8-8h144v112zm64 16h-16v-144h16zm0 0" fill="#1e81ce"/></svg>