<svg height="480pt" viewBox="-40 0 480 480" width="480pt" xmlns="http://www.w3.org/2000/svg"><g fill="#9bc9ff"><path d="m216 160c8.835938 0 16 7.164062 16 16v80h128v-128c0-53.019531-42.980469-96-96-96h-128v128zm0 0"/><path d="m232 320h128v152h-128zm0 0"/><path d="m104 176h32v-160h-32zm0 0"/><path d="m72 80h32v32h-32zm0 0"/><path d="m216 256v32h160v-32zm0 0"/><path d="m200 288v32h192v-32zm0 0"/></g><path d="m400 280h-16v-32h-16v-120c-.066406-57.410156-46.589844-103.933594-104-104h-120v-16h-48v64h-16v-8c-.050781-.445312-.140625-.886719-.265625-1.320312 0-.292969-.015625-.585938-.046875-.878907l-16-56c-.980469-3.433593-4.117188-5.800781-7.6875-5.800781h-32c-3.570312 0-6.707031 2.367188-7.6875 5.800781l-16 56c-.03125.292969-.046875.585938-.046875.878907-.125.433593-.2148438.875-.265625 1.320312v64c.0507812.445312.140625.886719.265625 1.320312 0 .292969.015625.585938.046875.878907l16 56c.980469 3.433593 4.117188 5.800781 7.6875 5.800781h32c3.570312 0 6.707031-2.367188 7.6875-5.800781l16-56c.03125-.292969.046875-.585938.046875-.878907.125-.433593.214844-.875.265625-1.320312v-8h16v64h48v-16h72c4.417969 0 8 3.582031 8 8v72h-16v32h-16v48h32v152h144v-152h32zm-336-160h-48v-48h48zm-33.96875-104h19.9375l11.421875 40h-42.78125zm19.9375 160h-19.9375l-11.421875-40h42.78125zm30.03125-72v-16h16v16zm32 64v-144h16v144zm104-16h-72v-112h120c48.578125.058594 87.941406 39.421875 88 88v120h-112v-72c0-13.253906-10.746094-24-24-24zm8 112h144v16h-144zm128 200h-112v-136h112zm32-152h-176v-16h176zm0 0" fill="#1e81ce"/></svg>