<svg height="483pt" viewBox="-37 0 483 483.072" width="483pt" xmlns="http://www.w3.org/2000/svg"><g fill="#9bc9ff"><path d="m168.035156 411.070312v-70.894531c0-4.242187 1.6875-8.3125 4.6875-11.3125l192.59375-192.511719-90.480468-90.480468-106.800782 106.722656v-109.523438h-128v368zm0 0"/><path d="m184.035156 43.070312v-32h-160v32zm0 0"/><path d="m376.035156 147.070312 22.640625-22.636718-113.121093-113.121094-22.640626 22.640625 11.921876 11.917969zm0 0"/><path d="m24.035156 411.070312v32h160v-32zm0 0"/><path d="m8.035156 443.070312v32h192v-32zm0 0"/></g><path d="m178.378906 334.519531 186.9375-186.855469 10.71875 10.71875 33.953125-33.949218-124.433593-124.433594-33.949219 33.953125 11.910156 11.910156-87.480469 87.425781v-82.21875h16v-48h-176v48h16v352h-16v32h-15.9999998v48h207.9999998v-48h-16v-32h-16v-62.894531c-.003906-2.121093.839844-4.160156 2.34375-5.65625zm107.175782-311.894531 101.808593 101.808594-11.328125 11.328125-101.808594-101.808594zm-253.519532-3.554688h144v16h-144zm160 448h-176v-16h176zm-160-32v-16h144v16zm16-32v-352h112v101.523438c0 3.234375 1.949219 6.148438 4.941406 7.386719 2.988282 1.238281 6.425782.554687 8.714844-1.734375l101.144532-101.0625 79.199218 79.199218-186.96875 186.824219c-4.515625 4.488281-7.046875 10.601563-7.03125 16.96875v62.894531zm0 0" fill="#1e81ce"/></svg>