<svg height="480pt" viewBox="0 0 480 480" width="480pt" xmlns="http://www.w3.org/2000/svg"><g fill="#9bc9ff"><path d="m312 40h160v128h-160zm0 0"/><path d="m136 40c-53.019531 0-96 42.980469-96 96v112h128v-64c0-8.835938 7.164062-16 16-16h64v-128zm0 0"/><path d="m40 312h128v160h-128zm0 0"/><path d="m24 248v32h160v-32zm0 0"/><path d="m8 280v32h192v-32zm0 0"/><path d="m248 24v160h32v-160zm0 0"/><path d="m312 8h-32v192h32zm0 0"/></g><path d="m480 32h-160v-32h-48v16h-32v16h-104c-57.410156.066406-103.933594 46.589844-104 104v104h-16v32h-16v48h32v160h144v-160h32v-48h-16v-32h-16v-56c0-4.417969 3.582031-8 8-8h56v16h32v16h48v-32h160zm-320 432h-112v-144h112zm32-160h-176v-16h176zm-16-32h-144v-16h144zm8-112c-13.253906 0-24 10.746094-24 24v56h-112v-104c.058594-48.578125 39.421875-87.941406 88-88h104v112zm72 16v-144h16v144zm48 16h-16v-176h16zm160-32h-144v-112h144zm0 0" fill="#1e81ce"/></svg>