<svg height="480pt" viewBox="0 0 480 480" width="480pt" xmlns="http://www.w3.org/2000/svg"><g fill="#9bc9ff"><path d="m384 24h88v96h-88zm0 0"/><path d="m136 24c-70.691406 0-128 57.308594-128 128v8c0 70.691406 57.308594 128 128 128h96v-96h-88c-17.671875 0-32-14.328125-32-32v-8c0-17.671875 14.328125-32 32-32h208v-96zm0 0"/><path d="m8 360h88v96h-88zm0 0"/><path d="m384 8h-32v128h32zm0 0"/><path d="m232 304h32v-128h-32zm0 0"/><path d="m128 344h-32v128h32zm0 0"/><path d="m336 288c17.671875 0 32 14.328125 32 32v8c0 17.671875-14.328125 32-32 32h-208v96h216c70.691406 0 128-57.308594 128-128v-8c0-70.691406-57.308594-128-128-128h-80v96zm0 0"/></g><path d="m480 128h-104v-112h104zm-88-16h72v-80h-72zm0 0" fill="#1e81ce"/><path d="m240 296h-104c-75.074219-.082031-135.9179688-60.925781-136-136v-8c.0820312-75.074219 60.925781-135.917969 136-136h224v112h-216c-13.253906 0-24 10.746094-24 24v8c0 13.253906 10.746094 24 24 24h96zm-104-264c-66.242188.074219-119.925781 53.757812-120 120v8c.074219 66.242188 53.757812 119.925781 120 120h88v-80h-80c-22.082031-.027344-39.972656-17.917969-40-40v-8c.027344-22.082031 17.917969-39.972656 40-40h200v-80zm0 0" fill="#1e81ce"/><path d="m104 464h-104v-112h104zm-88-16h72v-80h-72zm0 0" fill="#1e81ce"/><path d="m392 144h-48v-144h48zm-32-16h16v-112h-16zm0 0" fill="#1e81ce"/><path d="m272 312h-48v-144h48zm-32-16h16v-112h-16zm0 0" fill="#1e81ce"/><path d="m136 480h-48v-144h48zm-32-16h16v-112h-16zm0 0" fill="#1e81ce"/><path d="m344 464h-224v-112h216c13.253906 0 24-10.746094 24-24v-8c0-13.253906-10.746094-24-24-24h-80v-112h88c75.074219.082031 135.917969 60.925781 136 136v8c-.082031 75.074219-60.925781 135.917969-136 136zm-208-16h208c66.242188-.074219 119.925781-53.757812 120-120v-8c-.074219-66.242188-53.757812-119.925781-120-120h-72v80h64c22.082031.027344 39.972656 17.917969 40 40v8c-.027344 22.082031-17.917969 39.972656-40 40h-200zm0 0" fill="#1e81ce"/></svg>