<svg height="480pt" viewBox="0 0 480 480" width="480pt" xmlns="http://www.w3.org/2000/svg"><g fill="#9bc9ff"><path d="m120 240v-200h-96v200zm0 0"/><path d="m360 240h96v200h-96zm0 0"/><path d="m456 136c0-70.691406-57.308594-128-128-128h-8c-70.691406 0-128 57.308594-128 128v200c0 17.671875-14.328125 32-32 32h-8c-17.671875 0-32-14.328125-32-32v-96h-96v104c0 70.691406 57.308594 128 128 128h8c70.691406 0 128-57.308594 128-128v-200c0-17.671875 14.328125-32 32-32h8c17.671875 0 32 14.328125 32 32v96h96zm-48 64v-64c-.046875-44.164062-35.835938-79.953125-80-80h-8c-44.164062.046875-79.953125 35.835938-80 80v208c-.046875 44.164062-35.835938 79.953125-80 80h-8c-44.164062-.046875-79.953125-35.835938-80-80 .046875 44.164062 35.835938 79.953125 80 80h8c44.164062-.046875 79.953125-35.835938 80-80v-208c.046875-44.164062 35.835938-79.953125 80-80h8c44.164062.046875 79.953125 35.835938 80 80zm0 0"/><path d="m360 440h-16v32h128v-32zm0 0"/><path d="m136 40v-32h-128v32zm0 0"/></g><path d="m400 136v64h16v-64c-.058594-48.578125-39.421875-87.941406-88-88h-8c-48.578125.058594-87.941406 39.421875-88 88v208c-.042969 39.746094-32.253906 71.957031-72 72h-8c-39.746094-.042969-71.957031-32.253906-72-72v-64h-16v64c.058594 48.578125 39.421875 87.941406 88 88h8c48.578125-.058594 87.941406-39.421875 88-88v-208c.042969-39.746094 32.253906-71.957031 72-72h8c39.746094.042969 71.957031 32.253906 72 72zm0 0" fill="#1e81ce"/><path d="m464 432v-296c-.082031-75.074219-60.925781-135.9179688-136-136h-8c-75.074219.0820312-135.917969 60.925781-136 136v200c0 13.253906-10.746094 24-24 24h-8c-13.253906 0-24-10.746094-24-24v-288h16v-48h-144v48h16v296c.082031 75.074219 60.925781 135.917969 136 136h8c75.074219-.082031 135.917969-60.925781 136-136v-200c0-13.253906 10.746094-24 24-24h8c13.253906 0 24 10.746094 24 24v288h-16v48h144v-48zm-448-416h112v16h-112zm96 32v184h-80v-184zm216 56h-8c-22.082031.027344-39.972656 17.917969-40 40v200c-.074219 66.242188-53.757812 119.925781-120 120h-8c-66.242188-.074219-119.925781-53.757812-120-120v-96h32v16h16v-16h32v88c.027344 22.082031 17.917969 39.972656 40 40h8c22.082031-.027344 39.972656-17.917969 40-40v-200c.074219-66.242188 53.757812-119.925781 120-120h8c66.242188.074219 119.925781 53.757812 120 120v96h-32v-16h-16v16h-32v-88c-.027344-22.082031-17.917969-39.972656-40-40zm40 144h80v184h-80zm96 216h-112v-16h112zm0 0" fill="#1e81ce"/></svg>