<svg height="480pt" viewBox="0 -48 480 480" width="480pt" xmlns="http://www.w3.org/2000/svg"><path d="m147.742188 296h148.257812v-288h-288v320h56c0-26.507812 21.492188-48 48-48s48 21.492188 48 48h136v-32zm-22.652344-109.089844c0 13.257813-10.746094 24-24 24 13.253906 0 24-10.742187 24-24 0-13.253906-10.746094-24-24-24-13.257813 0-24 10.746094-24 24 0-9.703125 5.847656-18.453125 14.8125-22.167968 8.96875-3.710938 19.289062-1.660157 26.152344 5.203124l67.890624-67.890624c-6.863281-6.863282-8.914062-17.183594-5.203124-26.152344 3.714843-8.964844 12.464843-14.8125 22.167968-14.8125-9.703125 0-18.453125 5.847656-22.167968 14.8125-3.710938 8.96875-1.660157 19.289062 5.203124 26.152344 6.863282 6.863281 17.183594 8.914062 26.152344 5.203124 8.964844-3.714843 14.8125-12.464843 14.8125-22.167968 0 9.703125-5.847656 18.453125-14.8125 22.167968-8.96875 3.710938-19.289062 1.660157-26.152344-5.203124l-67.890624 67.890624c4.507812 4.492188 7.039062 10.601563 7.035156 16.964844zm0 0" fill="#9bc9ff"/><path d="m344 88h-48v240h40c0-26.507812 21.492188-48 48-48s48 21.492188 48 48h40v-96h-128zm0 0" fill="#9bc9ff"/><path d="m376 88c53.019531 0 96 42.980469 96 96 0-53.019531-42.980469-96-96-96zm0 0" fill="#9bc9ff"/><g fill="#1e81ce"><path d="m376 80h-72v-72c0-4.417969-3.582031-8-8-8h-288c-4.417969 0-8 3.582031-8 8v320c0 4.417969 3.582031 8 8 8h48.640625c3.953125 27.535156 27.542969 47.976562 55.359375 47.976562s51.40625-20.441406 55.359375-47.976562h161.28125c3.953125 27.535156 27.542969 47.976562 55.359375 47.976562s51.40625-20.441406 55.359375-47.976562h32.640625c4.417969 0 8-3.582031 8-8v-144c-.066406-57.410156-46.589844-103.933594-104-104zm0 16c48.578125.058594 87.941406 39.421875 88 88v40h-112v-128zm-208.921875 222.183594c-.132813-.800782-.261719-1.519532-.429687-2.273438-.222657-1.015625-.496094-2.007812-.800782-3.007812-.191406-.703125-.375-1.414063-.601562-2.101563-.335938-1.039062-.726563-2.046875-1.117188-3.058593-.25-.621094-.464844-1.246094-.722656-1.855469-.253906-.605469-.589844-1.253907-.894531-1.886719h125.488281v16h-120.566406c-.089844-.617188-.234375-1.207031-.355469-1.816406zm120.921875-302.183594v272h-136.886719c-.21875-.214844-.457031-.414062-.6875-.625-.746093-.703125-1.488281-1.40625-2.273437-2.070312-.550782-.472657-1.128906-.914063-1.703125-1.359376-.800781-.617187-1.601563-1.21875-2.402344-1.792968-.605469-.425782-1.222656-.800782-1.855469-1.230469-.800781-.539063-1.671875-1.058594-2.535156-1.546875-.648438-.375-1.304688-.726562-1.96875-1.078125-.886719-.457031-1.785156-.890625-2.695312-1.296875-.679688-.3125-1.359376-.617188-2.046876-.894531-.945312-.386719-1.914062-.722657-2.882812-1.058594-.695312-.238281-1.382812-.488281-2.09375-.695313-1.023438-.304687-2.066406-.550781-3.105469-.800781-.6875-.160156-1.359375-.34375-2.054687-.480469-1.167969-.230468-2.402344-.390624-3.5625-.542968-.589844-.078125-1.175782-.191406-1.773438-.246094-1.792968-.175781-3.625-.28125-5.472656-.28125s-3.679688.105469-5.480469.28125c-.597656.054688-1.183593.167969-1.777343.246094-1.199219.152344-2.398438.3125-3.558594.542968-.695313.136719-1.367188.320313-2.054688.480469-1.039062.25-2.082031.496094-3.105468.800781-.710938.207032-1.398438.457032-2.09375.695313-.96875.335937-1.9375.671875-2.882813 1.058594-.6875.277343-1.367187.582031-2.046875.894531-.910156.40625-1.808594.800781-2.695312 1.296875-.664063.351563-1.320313.703125-1.96875 1.078125-.863282.488281-1.703126 1.007812-2.535157 1.546875-.632812.398437-1.25.796875-1.855469 1.230469-.800781.574218-1.601562 1.175781-2.402343 1.792968-.574219.445313-1.152344.886719-1.703125 1.359376-.800782.664062-1.527344 1.367187-2.273438 2.070312-.277344.265625-.574218.503906-.855468.800781-.234376-.070312-.472657-.128906-.710938-.175781h-56v-272zm-272 288h45.464844c-.304688.632812-.617188 1.246094-.898438 1.886719-.277344.640625-.46875 1.234375-.71875 1.855469-.390625 1.011718-.800781 2.019531-1.121094 3.058593-.222656.6875-.40625 1.398438-.597656 2.101563-.28125 1-.554687 1.992187-.800781 3.007812-.167969.753906-.296875 1.503906-.433594 2.273438-.109375.609375-.261719 1.199218-.351562 1.816406h-40.542969zm96 64c-22.089844 0-40-17.910156-40-40s17.910156-40 40-40 40 17.910156 40 40c-.027344 22.082031-17.917969 39.972656-40 40zm272 0c-22.089844 0-40-17.910156-40-40s17.910156-40 40-40 40 17.910156 40 40c-.027344 22.082031-17.917969 39.972656-40 40zm55.433594-48c-.089844-.617188-.242188-1.207031-.355469-1.816406-.132813-.800782-.261719-1.519532-.429687-2.273438-.222657-1.015625-.496094-2.007812-.800782-3.007812-.191406-.703125-.375-1.414063-.601562-2.101563-.335938-1.039062-.726563-2.046875-1.117188-3.058593-.25-.621094-.464844-1.246094-.722656-1.855469-.496094-1.144531-1.054688-2.253907-1.597656-3.359375-.222656-.4375-.417969-.894532-.65625-1.328125-.828125-1.507813-1.71875-2.976563-2.679688-4.40625-.214844-.320313-.464844-.609375-.679687-.929688-.800781-1.09375-1.601563-2.175781-2.402344-3.199219-.390625-.480468-.796875-.929687-1.222656-1.398437-.726563-.800781-1.449219-1.65625-2.214844-2.402344-.488281-.496093-1-.960937-1.511719-1.429687-.746094-.707032-1.488281-1.410156-2.273437-2.074219-.550781-.472656-1.128907-.910156-1.703125-1.359375-.800782-.617188-1.601563-1.214844-2.402344-1.792969-.605469-.421875-1.222656-.800781-1.855469-1.230469-.800781-.535156-1.671875-1.054687-2.535156-1.542968-.648437-.378906-1.304687-.730469-1.96875-1.082032-.886719-.457031-1.78125-.886718-2.695313-1.296874-.679687-.3125-1.359374-.613282-2.046874-.894532-.945313-.382812-1.914063-.71875-2.882813-1.054687-.695313-.242188-1.382813-.488281-2.09375-.699219-1.023437-.300781-2.0625-.550781-3.105469-.796875-.6875-.160156-1.359375-.34375-2.054687-.480469-1.167969-.234375-2.359375-.394531-3.558594-.542968-.59375-.082032-1.175781-.195313-1.777344-.25-1.808593-.230469-3.640625-.335938-5.488281-.335938s-3.679688.105469-5.480469.28125c-.597656.054688-1.183593.167969-1.777343.246094-1.199219.152344-2.398438.3125-3.558594.542968-.695313.136719-1.367188.320313-2.054688.480469-1.039062.25-2.082031.496094-3.105468.800781-.710938.207032-1.398438.457032-2.09375.695313-.96875.335937-1.9375.671875-2.882813 1.058594-.6875.277343-1.367187.582031-2.046875.894531-.910156.40625-1.808594.800781-2.695312 1.296875-.664063.351563-1.320313.703125-1.96875 1.078125-.863282.488281-1.703126 1.007812-2.535157 1.546875-.632812.398437-1.25.796875-1.855469 1.230469-.800781.574218-1.601562 1.175781-2.402343 1.792968-.574219.445313-1.152344.886719-1.703125 1.359376-.800782.664062-1.527344 1.367187-2.273438 2.070312-.511718.472656-1.023437.9375-1.511718 1.433594-.796876.800781-1.488282 1.597656-2.214844 2.398437-.40625.472657-.800782.921875-1.222656 1.402344-.847657 1.039063-1.640626 2.117187-2.402344 3.199219-.214844.320312-.460938.605468-.679688.925781-.960937 1.425781-1.851562 2.894531-2.679687 4.410156-.238281.429688-.429688.886719-.65625 1.328125-.566407 1.101563-1.128907 2.214844-1.597657 3.359375-.257812.609375-.472656 1.230469-.722656 1.855469-.390625 1.007812-.800781 2.015625-1.117187 3.054688-.226563.691406-.410157 1.402343-.601563 2.105468-.28125 1-.550781 1.992188-.800781 3.007813-.167969.753906-.296875 1.503906-.429687 2.273437-.113282.605469-.265626 1.199219-.355469 1.816406h-24.574219v-223.945312h32v136c0 4.417969 3.582031 8 8 8h120v80zm0 0"/><path d="m77.089844 194.910156c4.417968 0 8-3.578125 8-8 0-8.835937 7.160156-16 16-16 8.835937 0 16 7.164063 16 16 0 8.839844-7.164063 16-16 16-4.421875 0-8 3.582032-8 8 0 4.421875 3.578125 8 8 8 17.671875 0 32-14.324218 32-32-.03125-5.695312-1.597656-11.277344-4.539063-16.15625l58.210938-58.203125c4.875 2.9375 10.457031 4.503907 16.148437 4.539063 17.675782 0 32-14.328125 32-32 0-4.421875-3.578125-8-8-8-4.417968 0-8 3.578125-8 8 0 8.835937-7.160156 16-16 16-8.835937 0-16-7.164063-16-16 0-8.839844 7.164063-16 16-16 4.421875 0 8-3.582032 8-8 0-4.421875-3.578125-8-8-8-17.671875 0-32 14.324218-32 32 .03125 5.695312 1.597656 11.277344 4.539063 16.15625l-58.210938 58.203125c-4.875-2.9375-10.457031-4.503907-16.148437-4.539063-17.675782 0-32 14.328125-32 32 0 4.421875 3.578125 8 8 8zm0 0"/><path d="m384 304c-13.253906 0-24 10.746094-24 24s10.746094 24 24 24 24-10.746094 24-24-10.746094-24-24-24zm0 32c-4.417969 0-8-3.582031-8-8s3.582031-8 8-8 8 3.582031 8 8-3.582031 8-8 8zm0 0"/><path d="m112 304c-13.253906 0-24 10.746094-24 24s10.746094 24 24 24 24-10.746094 24-24-10.746094-24-24-24zm0 32c-4.417969 0-8-3.582031-8-8s3.582031-8 8-8 8 3.582031 8 8-3.582031 8-8 8zm0 0"/></g></svg>