<svg height="480pt" viewBox="-104 0 480 480" width="480pt" xmlns="http://www.w3.org/2000/svg"><g fill="#9bc9ff"><path d="m8 440v32h256v-32zm0 0"/><path d="m104 316.640625c-47.460938 14.175781-79.988281 57.828125-80 107.359375v16h224v-16c.007812-29.707031-11.792969-58.195312-32.800781-79.199219-13.175781-13.125-29.390625-22.800781-47.199219-28.160156-20.886719-6.1875-43.113281-6.1875-64 0zm32 27.359375c-7.746094-.011719-15.449219 1.101562-22.871094 3.3125-28.210937 8.550781-49.492187 31.828125-55.488281 60.6875 5.996094-28.859375 27.277344-52.136719 55.488281-60.6875 14.914063-4.40625 30.785156-4.40625 45.703125 0-7.410156-2.203125-15.101562-3.320312-22.832031-3.3125zm0 0"/><path d="m104 256v60.640625c20.886719-6.1875 43.113281-6.1875 64 0v-60.640625zm0 0"/></g><path d="m264 432h-8v-8c.042969-31.851562-12.628906-62.402344-35.199219-84.871094-12.703125-12.503906-27.996093-22.0625-44.800781-28v-55.128906c0-4.417969-3.582031-8-8-8h-8v-240c0-4.417969-3.582031-8-8-8h-32c-4.417969 0-8 3.582031-8 8v240h-8c-4.417969 0-8 3.582031-8 8v54.9375c-47.785156 17.117188-79.757812 62.304688-80 113.0625v8h-8c-4.417969 0-8 3.582031-8 8v32c0 4.417969 3.582031 8 8 8h256c4.417969 0 8-3.582031 8-8v-32c0-4.417969-3.582031-8-8-8zm-136-416h16v232h-16zm-16 248h48v42.398438c-.726562-.152344-1.472656-.199219-2.207031-.335938-2.472657-.445312-4.953125-.796875-7.457031-1.125-1.3125-.152344-2.617188-.304688-3.9375-.417969-2.839844-.246093-5.6875-.382812-8.535157-.421875-.625 0-1.238281-.097656-1.863281-.097656s-1.230469.078125-1.847656.089844c-2.863282.046875-5.710938.183594-8.558594.429687-1.3125.113281-2.617188.265625-3.921875.417969-2.511719.292969-5.007813.679688-7.488281 1.132812-.726563.128907-1.464844.1875-2.183594.328126zm-80 160c-.023438-30.214844 13.105469-58.949219 35.964844-78.707031 22.859375-19.761719 53.1875-28.59375 83.082031-24.195313 4.957031.703125 9.855469 1.773438 14.65625 3.199219 16.527344 5 31.574219 13.976563 43.824219 26.144531 19.550781 19.480469 30.519531 45.957032 30.472656 73.558594v8h-208zm224 40h-240v-16h240zm0 0" fill="#1e81ce"/><path d="m161.121094 339.632812c-16.414063-4.828124-33.867188-4.828124-50.28125 0-31.101563 9.296876-54.558594 34.957032-61.03125 66.765626-.882813 4.3125 1.882812 8.527343 6.191406 9.433593.527344.109375 1.0625.164063 1.601562.167969 3.792969-.007812 7.0625-2.679688 7.824219-6.398438 4.027344-19.800781 16.191407-36.996093 33.519531-47.386718 17.328126-10.390625 38.226563-13.023438 57.589844-7.253906 2.75.859374 5.75.171874 7.855469-1.796876s2.984375-4.917968 2.308594-7.71875c-.675781-2.800781-2.808594-5.023437-5.578125-5.8125zm0 0" fill="#1e81ce"/></svg>