<svg height="480pt" viewBox="-72 0 480 480" width="480pt" xmlns="http://www.w3.org/2000/svg"><g fill="#9bc9ff"><path d="m104 416v56h128v-56c-40 21.332031-88 21.332031-128 0zm0 0"/><path d="m89.199219 280h-57.199219c-8.824219.027344-15.972656 7.175781-16 16v16h304v-16c-.027344-8.824219-7.175781-15.972656-16-16zm0 0"/><path d="m8 40h320v-32h-320zm0 0"/><path d="m168 64c-66.238281 0-120 71.601562-120 160 0 2.640625.078125 5.359375.160156 8 .578125 16.238281 3.078125 32.347656 7.441406 48h33.597657c-5.296875-15.484375-8.339844-31.648438-9.039063-48-.082031-2.640625-.160156-5.28125-.160156-8 0-69.359375 40.320312-128 88-128s88 58.640625 88 128c0 2.71875-.078125 5.359375-.160156 8-.699219 16.351562-3.742188 32.515625-9.039063 48h33.597657c4.363281-15.652344 6.863281-31.761719 7.441406-48 .082031-2.640625.160156-5.359375.160156-8 0-88.398438-53.761719-160-120-160zm0 0"/></g><path d="m328 0h-320c-4.417969 0-8 3.582031-8 8v32c0 4.417969 3.582031 8 8 8h8v184c0 4.417969 3.582031 8 8 8h16.679688c.761718 10.765625 2.316406 21.464844 4.65625 32h-13.335938c-13.253906 0-24 10.746094-24 24v16c0 4.417969 3.582031 8 8 8h10.023438c7.15625 42.296875 32.8125 79.195312 69.976562 100.625v51.375c0 4.417969 3.582031 8 8 8h128c4.417969 0 8-3.582031 8-8v-51.375c37.164062-21.429688 62.820312-58.328125 69.976562-100.625h10.023438c4.417969 0 8-3.582031 8-8v-16c0-13.253906-10.746094-24-24-24h-13.335938c2.339844-10.535156 3.898438-21.234375 4.65625-32h16.679688c4.417969 0 8-3.582031 8-8v-184h8c4.417969 0 8-3.582031 8-8v-32c0-4.417969-3.582031-8-8-8zm-104 464h-112v-35.3125c35.855469 14.855469 76.144531 14.855469 112 0zm4.238281-55.054688c-37.628906 20.058594-82.78125 20.058594-120.414062 0-34.179688-18.207031-58.28125-50.90625-65.550781-88.945312h251.453124c-7.253906 38.027344-31.332031 70.722656-65.488281 88.945312zm83.761719-112.945312v8h-288v-8c0-4.417969 3.582031-8 8-8h272c4.417969 0 8 3.582031 8 8zm-64.152344-64.375c-.175781 3.800781-.496094 7.542969-.910156 11.253906-.136719 1.226563-.335938 2.402344-.496094 3.625-.335937 2.480469-.6875 4.953125-1.121094 7.382813-.257812 1.402343-.550781 2.769531-.800781 4.152343-.457031 2.207032-.933593 4.410157-1.488281 6.570313-.351562 1.421875-.742188 2.824219-1.136719 4.222656-.300781 1.070313-.648437 2.113281-.964843 3.199219h-145.816407c-.320312-1.054688-.664062-2.09375-.96875-3.199219-.390625-1.398437-.800781-2.800781-1.144531-4.222656-.542969-2.160156-1.023438-4.351563-1.480469-6.5625-.289062-1.375-.582031-2.75-.839843-4.144531-.433594-2.398438-.800782-4.886719-1.121094-7.359375-.160156-1.199219-.359375-2.398438-.496094-3.597657-.414062-3.699218-.726562-7.425781-.902344-11.203124-.082031-2.558594-.160156-5.117188-.160156-7.75 0-65.046876 36.640625-120 80-120s80 54.953124 80 120c0 2.640624-.078125 5.199218-.152344 7.632812zm9.808594 40.375c.070312-.265625.128906-.542969.199219-.800781.222656-.839844.402343-1.695313.617187-2.542969.726563-2.894531 1.398438-5.824219 1.984375-8.800781.246094-1.230469.472657-2.480469.6875-3.726563.484375-2.757812.910157-5.546875 1.269531-8.367187.152344-1.175781.320313-2.355469.449219-3.546875.433594-3.941406.800781-7.925782.96875-12 .089844-2.695313.167969-5.40625.167969-8.214844 0-73.71875-43.960938-136-96-136s-96 62.28125-96 136c0 2.808594.078125 5.519531.167969 8.375.191406 4 .535156 8 .96875 11.882812.128906 1.207032.304687 2.398438.457031 3.582032.359375 2.785156.796875 5.550781 1.253906 8.289062.222656 1.253906.449219 2.511719.695313 3.757813.582031 2.945312 1.242187 5.855469 1.976562 8.738281.214844.855469.402344 1.726562.632813 2.574219.0625.265625.121094.535156.191406.800781h-16.582031c-3.234375-13.191406-5.113281-26.675781-5.601563-40.246094-.082031-2.5625-.160156-5.195312-.160156-7.753906 0-83.816406 50.238281-152 112-152s112 68.183594 112 152c0 2.558594-.078125 5.191406-.160156 7.695312-.488282 13.589844-2.363282 27.097657-5.601563 40.304688zm46.34375-48h-8c0-92.632812-57.425781-168-128-168s-128 75.367188-128 168h-8v-176h272zm16-192h-304v-16h304zm0 0" fill="#1e81ce"/></svg>