<svg height="480pt" viewBox="-72 0 480 480" width="480pt" xmlns="http://www.w3.org/2000/svg"><g fill="#9bc9ff"><path d="m104 232h128v32h-128zm0 0"/><path d="m104 416v56h128v-56c-40 21.332031-88 21.332031-128 0zm0 0"/><path d="m32 264c-8.835938 0-16 7.164062-16 16v16h304v-16c0-8.835938-7.164062-16-16-16zm0 0"/><path d="m8 40h320v-32h-320zm0 0"/><path d="m24 232h288v-31.921875h-288zm0 0"/><path d="m80 80c0 8.835938-7.164062 16-16 16s-16-7.164062-16-16 7.164062-16 16-16 16 7.164062 16 16zm0 0"/></g><path d="m64 104c10.132812-.042969 19.148438-6.445312 22.527344-16h25.472656c4.417969 0 8-3.582031 8-8s-3.582031-8-8-8h-25.472656c-4.085938-11.476562-16.136719-18.058594-28.003906-15.296875-11.863282 2.761719-19.769532 13.988281-18.367188 26.09375 1.402344 12.101563 11.660156 21.226563 23.84375 21.203125zm0-32c4.417969 0 8 3.582031 8 8s-3.582031 8-8 8-8-3.582031-8-8 3.582031-8 8-8zm0 0" fill="#1e81ce"/><path d="m328 0h-320c-4.417969 0-8 3.582031-8 8v32c0 4.417969 3.582031 8 8 8h8v184c0 4.417969 3.582031 8 8 8h72v16h-64c-13.253906 0-24 10.746094-24 24v16c0 4.417969 3.582031 8 8 8h8.265625c2.660156 48.496094 29.648437 92.363281 71.734375 116.609375v51.390625c0 4.417969 3.582031 8 8 8h128c4.417969 0 8-3.582031 8-8v-51.390625c42.085938-24.246094 69.074219-68.113281 71.734375-116.609375h8.265625c4.417969 0 8-3.582031 8-8v-16c0-13.253906-10.746094-24-24-24h-64v-16h72c4.417969 0 8-3.582031 8-8v-184h8c4.417969 0 8-3.582031 8-8v-32c0-4.417969-3.582031-8-8-8zm-104 464h-112v-35.3125c35.855469 14.855469 76.144531 14.855469 112 0zm4.238281-55.054688c-37.628906 20.058594-82.78125 20.058594-120.414062 0-39.230469-20.859374-64.8125-60.597656-67.550781-104.945312h255.453124c-2.726562 44.332031-28.28125 84.070312-67.488281 104.945312zm83.761719-128.945312v8h-288v-8c0-4.417969 3.582031-8 8-8h272c4.417969 0 8 3.582031 8 8zm-88-24h-112v-16h112zm80-32h-272v-15.910156h272zm0-31.910156h-272v-144.089844h272zm16-160.089844h-304v-16h304zm0 0" fill="#1e81ce"/></svg>