<svg height="480pt" viewBox="0 0 480 480" width="480pt" xmlns="http://www.w3.org/2000/svg"><g fill="#9bc9ff"><path d="m128 240h224v48h-224zm0 0"/><path d="m400 288v24h-48v-24h-224v24h-48v-48h-48v208h128v-104c0-8.835938 7.164062-16 16-16h128c8.835938 0 16 7.164062 16 16v104h128v-208h-48zm0 0"/><path d="m320 104h-312v160h72v-48h48v24h224v-24h48v48h72v-160zm-224 32"/><path d="m160 40h160v64h32v-96h-224v96h32zm0 0"/></g><path d="m472 96h-112v-88c0-4.417969-3.582031-8-8-8h-224c-4.417969 0-8 3.582031-8 8v88h-112c-4.417969 0-8 3.582031-8 8v160c0 4.417969 3.582031 8 8 8h16v200c0 4.417969 3.582031 8 8 8h416c4.417969 0 8-3.582031 8-8v-200h16c4.417969 0 8-3.582031 8-8v-160c0-4.417969-3.582031-8-8-8zm-336-80h208v80h-16v-56c0-4.417969-3.582031-8-8-8h-160c-4.417969 0-8 3.582031-8 8v56h-16zm176 32v48h-144v-48zm0 416h-144v-96c0-4.417969 3.582031-8 8-8h128c4.417969 0 8 3.582031 8 8zm128 0h-112v-96c0-13.253906-10.746094-24-24-24h-128c-13.253906 0-24 10.746094-24 24v96h-112v-192h32v40c0 4.417969 3.582031 8 8 8h48c4.417969 0 8-3.582031 8-8v-16h208v16c0 4.417969 3.582031 8 8 8h48c4.417969 0 8-3.582031 8-8v-40h32zm-352-168h32v8h-32zm0-16v-56h32v56zm48 0v-32h208v32zm256 0h-32v-56h32zm0 16v8h-32v-8zm72-40h-56v-40c0-4.417969-3.582031-8-8-8h-48c-4.417969 0-8 3.582031-8 8v16h-208v-16c0-4.417969-3.582031-8-8-8h-48c-4.417969 0-8 3.582031-8 8v40h-56v-144h448zm0 0" fill="#1e81ce"/><path d="m376 144h-280c-4.417969 0-8-3.582031-8-8s3.582031-8 8-8h280c4.417969 0 8 3.582031 8 8s-3.582031 8-8 8zm0 0" fill="#1e81ce"/></svg>