<svg height="480pt" viewBox="0 -68 480 480" width="480pt" xmlns="http://www.w3.org/2000/svg"><g fill="#9bc9ff"><path d="m8 208h64v96h-64zm0 0"/><path d="m288 72v-32h-96v32zm0 0"/><path d="m176.078125 304c15.078125 20.140625 38.761719 32 63.921875 32s48.84375-11.859375 63.921875-32h40.078125v-96h-40.078125c-4.476563-6.078125-9.84375-11.445312-15.921875-15.921875-2.554688-1.921875-5.226562-3.6875-8-5.277344v-50.800781h-80v50.800781c-2.773438 1.589844-5.445312 3.355469-8 5.277344-6.078125 4.476563-11.445312 9.84375-15.921875 15.921875h-40.078125v96zm0 0"/><path d="m304 136v-32h-128v32zm0 0"/><path d="m104 336h32v-168h-32zm0 0"/><path d="m72 320h32v-128h-32zm0 0"/><path d="m408 208h64v96h-64zm0 0"/><path d="m344 336h32v-168h-32zm0 0"/><path d="m408 320v-128h-32v128zm0 0"/></g><path d="m480 200h-64v-16h-32v-24h-48v40h-28.167969c-4.390625-5.386719-9.441406-10.199219-15.03125-14.328125-1.601562-1.199219-3.199219-2.320313-4.800781-3.351563v-38.320312h24v-48h-40v-16h24v-32h64c4.417969 0 8-3.582031 8-8v-16c0-13.253906-10.746094-24-24-24h-208c-13.253906 0-24 10.746094-24 24v16c0 4.417969 3.582031 8 8 8h64v32h24v16h-40v48h24v38.320312c-1.601562 1.03125-3.199219 2.136719-4.742188 3.320313-5.617187 4.132813-10.683593 8.957031-15.089843 14.359375h-28.167969v-40h-48v24h-32v16h-64v112h64v16h32v16h48v-32h28.183594c16.6875 20.261719 41.566406 32.003906 67.816406 32.003906s51.128906-11.742187 67.816406-32.003906h28.183594v32h48v-16h32v-16h64zm-352-168v-8c0-4.417969 3.582031-8 8-8h208c4.417969 0 8 3.582031 8 8v8zm72 16h80v16h-80zm24 32h32v16h-32zm-40 32h112v16h-112zm-168 184v-80h48v80zm64 16v-112h16v112zm48 16h-16v-152h16zm175.921875-32c-2.519531 0-4.890625 1.1875-6.402344 3.199219-13.5625 18.128906-34.878906 28.800781-57.519531 28.800781s-43.957031-10.671875-57.519531-28.800781c-1.511719-2.011719-3.882813-3.199219-6.402344-3.199219h-32.078125v-80h32.078125c2.53125-.011719 4.902344-1.21875 6.402344-3.257812 5.816406-7.71875 13.136719-14.179688 21.519531-18.988282 2.484375-1.433594 4.007812-4.085937 4-6.953125v-42.800781h64v42.800781c-.007812 2.867188 1.515625 5.519531 4 6.953125 2.5 1.445313 4.90625 3.046875 7.199219 4.796875 5.429687 4 10.226562 8.796875 14.226562 14.226563 1.496094 2.035156 3.871094 3.242187 6.398438 3.253906h32.175781v79.96875zm48.078125 32v-152h16v152zm32-16v-112h16v112zm80-16h-48v-80h48zm0 0" fill="#1e81ce"/></svg>