<svg height="480pt" viewBox="0 -68 480 480" width="480pt" xmlns="http://www.w3.org/2000/svg"><g fill="#9bc9ff"><path d="m304 176v-40h-128v40h-40v128h208v-128zm0 0"/><path d="m408 176h64v128h-64zm0 0"/><path d="m344 160v160h32v-160zm0 0"/><path d="m408 144h-32v192h32zm0 0"/><path d="m8 176h64v128h-64zm0 0"/><path d="m136 160h-32v160h32zm0 0"/><path d="m104 144h-32v192h32zm0 0"/><path d="m288 72v-32h-96v32zm0 0"/><path d="m304 104h-128v32h128zm0 0"/></g><path d="m480 168h-64v-32h-48v16h-32v16h-24v-72h-40v-16h24v-32h64c4.417969 0 8-3.582031 8-8v-16c0-13.253906-10.746094-24-24-24h-208c-13.253906 0-24 10.746094-24 24v16c0 4.417969 3.582031 8 8 8h64v32h24v16h-40v72h-24v-16h-32v-16h-48v32h-64v144h64v32h48v-16h32v-16h192v16h32v16h48v-32h64zm-352-136v-8c0-4.417969 3.582031-8 8-8h208c4.417969 0 8 3.582031 8 8v8zm72 16h80v16h-80zm24 32h32v16h-32zm-40 32h112v16h-112zm-168 184v-112h48v112zm64 32v-176h16v176zm48-16h-16v-144h16zm16-16v-112h32c4.417969 0 8-3.582031 8-8v-32h112v32c0 4.417969 3.582031 8 8 8h32v112zm208 16v-144h16v144zm48 16h-16v-176h16zm64-32h-48v-112h48zm0 0" fill="#1e81ce"/></svg>