<svg height="480pt" viewBox="0 -112 480 480" width="480pt" xmlns="http://www.w3.org/2000/svg"><g fill="#9bc9ff"><path d="m341.441406 63.984375c-2.082031-3.421875-4.382812-6.707031-6.882812-9.839844-22.726563-29.128906-57.613282-46.15625-94.558594-46.15625s-71.832031 17.027344-94.558594 46.15625c-2.5 3.132813-4.800781 6.417969-6.882812 9.839844-24.746094 39.078125-24.746094 88.921875 0 128 2.082031 3.425781 4.382812 6.710937 6.882812 9.839844 22.726563 29.132812 57.613282 46.160156 94.558594 46.160156s71.832031-17.027344 94.558594-46.160156c2.5-3.128907 4.800781-6.414063 6.882812-9.839844 24.746094-39.078125 24.746094-88.921875 0-128zm-39.203125 126.242187c-34.367187 34.351563-90.078125 34.34375-124.4375-.019531-34.363281-34.367187-34.363281-90.078125 0-124.441406 34.359375-34.367187 90.070313-34.375 124.4375-.019531 34.320313 34.394531 34.320313 90.082031 0 124.480468zm0 0"/><path d="m138.558594 63.984375h-66.558594v128h66.558594c-24.746094-39.078125-24.746094-88.921875 0-128zm0 0"/><path d="m341.441406 63.984375c24.746094 39.078125 24.746094 88.921875 0 128h66.558594v-128zm0 0"/><path d="m8 47.984375h32v160h-32zm0 0"/><path d="m72 31.984375h-32v192h32zm0 0"/><path d="m440 47.984375h32v160h-32zm0 0"/><path d="m440 31.984375h-32v192h32zm0 0"/></g><path d="m307.894531 60.089844c-37.492187-37.480469-98.269531-37.472656-135.753906.019531-37.484375 37.488281-37.484375 98.265625 0 135.753906s98.261719 37.496094 135.753906.019531c37.441407-37.523437 37.441407-98.269531 0-135.792968zm-17.253906 5.945312-34.488281 34.488282c-9.917969-6.050782-22.386719-6.050782-32.304688 0l-34.488281-34.488282c29.480469-24.046875 71.800781-24.046875 101.28125 0zm-66.640625 61.949219c0-8.835937 7.164062-16 16-16s16 7.164063 16 16-7.164062 16-16 16-16-7.164063-16-16zm-45.953125-50.640625 34.488281 34.488281c-6.046875 9.921875-6.046875 22.386719 0 32.304688l-34.488281 34.488281c-24.03125-29.484375-24.03125-71.796875 0-101.28125zm11.3125 112.59375 34.488281-34.488281c9.917969 6.046875 22.386719 6.046875 32.304688 0l34.488281 34.488281c-29.484375 24.03125-71.796875 24.03125-101.28125 0zm112.59375-11.3125-34.488281-34.488281c6.046875-9.917969 6.046875-22.382813 0-32.304688l34.488281-34.488281c24.03125 29.484375 24.03125 71.796875 0 101.28125zm0 0" fill="#1e81ce"/><path d="m480 39.984375h-32v-16h-48v32h-54.230469c-1.53125-2.277344-3.144531-4.542969-4.90625-6.757813-24.234375-31.058593-61.425781-49.2148432-100.816406-49.226562-39.394531-.0117188-76.59375 18.128906-100.847656 49.167969-1.800781 2.265625-3.421875 4.554687-4.941407 6.816406h-54.257812v-32h-48v16h-32v176h32v16h48v-32h54.230469c1.53125 2.28125 3.144531 4.554687 4.90625 6.761719 24.234375 31.0625 61.429687 49.230468 100.828125 49.242187 39.402344.007813 76.609375-18.136719 100.859375-49.1875 1.800781-2.261719 3.421875-4.550781 4.945312-6.816406h54.230469v32h48v-16h32zm-464 160v-144h16v144zm48 16h-16v-176h16zm16-32v-112h44.921875c-.195313.386719-.3125.800781-.496094 1.175781-1.824219 3.785156-3.453125 7.660156-4.882812 11.609375-.214844.609375-.390625 1.222657-.605469 1.832031-1.25 3.652344-2.332031 7.363282-3.25 11.128907-.167969.710937-.367188 1.40625-.527344 2.117187-.921875 4.089844-1.601562 8.234375-2.136718 12.410156-.113282.902344-.191407 1.808594-.289063 2.710938-.980469 8.65625-.980469 17.394531 0 26.050781.097656.894531.175781 1.789063.289063 2.679688.503906 4.1875 1.21875 8.347656 2.144531 12.460937.144531.664063.328125 1.3125.488281 1.96875.945312 3.890625 2.0625 7.71875 3.359375 11.488282.167969.488281.304687.984374.480469 1.472656 1.457031 4.03125 3.121094 7.988281 4.984375 11.847656.160156.34375.273437.703125.441406 1.046875zm160 56c-34.53125.097656-67.148438-15.839844-88.296875-43.136719-2.324219-2.914062-4.460937-5.972656-6.398437-9.15625-11.339844-17.847656-17.34375-38.5625-17.304688-59.707031 0-2.765625.113281-5.519531.3125-8.261719 1.332031-18.324218 7.191406-36.03125 17.054688-51.527344l.160156-.257812c1.890625-3.082031 3.964844-6.042969 6.214844-8.871094 21.222656-27.199218 53.796874-43.09375 88.292968-43.082031s67.058594 15.925781 88.261719 43.136719c2.234375 2.804687 4.296875 5.742187 6.175781 8.800781l.214844.34375c11.34375 17.851563 17.351562 38.570313 17.3125 59.71875 0 2.769531-.113281 5.519531-.3125 8.265625-1.332031 18.324219-7.191406 36.027344-17.054688 51.527344l-.160156.257812c-1.890625 3.078125-3.964844 6.042969-6.214844 8.871094-21.152343 27.265625-53.75 43.179688-88.257812 43.078125zm115.078125-56c.195313-.382813.3125-.796875.496094-1.175781 1.824219-3.785156 3.453125-7.65625 4.882812-11.605469.214844-.609375.390625-1.226563.605469-1.832031 1.25-3.660156 2.332031-7.371094 3.25-11.128906.167969-.710938.367188-1.410157.527344-2.121094.921875-4.085938 1.601562-8.230469 2.136718-12.40625.113282-.90625.191407-1.808594.289063-2.714844.980469-8.652344.980469-17.386719 0-26.039062-.097656-.894532-.175781-1.800782-.289063-2.695313-.503906-4.167969-1.214843-8.3125-2.136718-12.40625-.152344-.714844-.351563-1.410156-.527344-2.113281-.917969-3.78125-2.007812-7.515625-3.273438-11.199219-.191406-.585937-.359374-1.167969-.566406-1.746094-1.425781-4-3.082031-7.832031-4.898437-11.640625-.183594-.382812-.300781-.796875-.496094-1.175781h44.921875v112zm60.921875 32v-176h16v176zm48-16h-16v-144h16zm0 0" fill="#1e81ce"/></svg>