<svg height="480pt" viewBox="0 -52 480 480" width="480pt" xmlns="http://www.w3.org/2000/svg"><path d="m304 208v-40h-128v40h-40v128h208v-128zm0 0" fill="#9bc9ff"/><path d="m8 208h64v128h-64zm0 0" fill="#9bc9ff"/><path d="m136 192h-32v160h32zm0 0" fill="#9bc9ff"/><path d="m320 168v-32h-160v32zm0 0" fill="#9bc9ff"/><path d="m104 176h-32v192h32zm0 0" fill="#9bc9ff"/><path d="m408 208h64v128h-64zm0 0" fill="#9bc9ff"/><path d="m344 192v160h32v-160zm0 0" fill="#9bc9ff"/><path d="m408 176h-32v192h32zm0 0" fill="#9bc9ff"/><path d="m216 88h48v48h-48zm0 0" fill="#9bc9ff"/><path d="m264 24c0-8.835938-7.164062-16-16-16h-16c-8.835938 0-16 7.164062-16 16v24h48zm0 0" fill="#9bc9ff"/><g fill="#1e81ce"><path d="m344 344h-208c-4.417969 0-8-3.582031-8-8v-128c0-4.417969 3.582031-8 8-8h32v-32c0-4.417969 3.582031-8 8-8h128c4.417969 0 8 3.582031 8 8v32h32c4.417969 0 8 3.582031 8 8v128c0 4.417969-3.582031 8-8 8zm-200-16h192v-112h-32c-4.417969 0-8-3.582031-8-8v-32h-112v32c0 4.417969-3.582031 8-8 8h-32zm0 0"/><path d="m80 344h-80v-144h80zm-64-16h48v-112h-48zm0 0"/><path d="m144 360h-48v-176h48zm-32-16h16v-144h-16zm0 0"/><path d="m328 176h-176v-48h176zm-160-16h144v-16h-144zm0 0"/><path d="m112 376h-48v-208h48zm-32-16h16v-176h-16zm0 0"/><path d="m480 344h-80v-144h80zm-64-16h48v-112h-48zm0 0"/><path d="m384 360h-48v-176h48zm-32-16h16v-144h-16zm0 0"/><path d="m416 376h-48v-208h48zm-32-16h16v-176h-16zm0 0"/><path d="m272 144h-64v-64h64zm-48-16h32v-32h-32zm0 0"/><path d="m298.574219 96h-114.574219v-56h109.273438l24.328124-16h138.398438v56h-133.558594zm-98.574219-16h93.703125l23.898437-16h122.398438v-24h-117.601562l-24.335938 16h-98.0625zm0 0"/><path d="m272 56h-64v-32c0-13.253906 10.746094-24 24-24h16c13.253906 0 24 10.746094 24 24zm-48-16h32v-16c0-4.417969-3.582031-8-8-8h-16c-4.417969 0-8 3.582031-8 8zm0 0"/></g></svg>