<svg height="480pt" viewBox="0 -112 480 480" width="480pt" xmlns="http://www.w3.org/2000/svg"><g fill="#9bc9ff"><path d="m341.441406 63.980469c-2.082031-3.425781-4.382812-6.710938-6.882812-9.839844-22.726563-29.132813-57.613282-46.160156-94.558594-46.160156s-71.832031 17.027343-94.558594 46.160156c-2.5 3.128906-4.800781 6.414063-6.882812 9.839844-24.746094 39.078125-24.746094 88.921875 0 128 2.082031 3.421875 4.382812 6.707031 6.882812 9.839843 22.726563 29.128907 57.613282 46.160157 94.558594 46.160157s71.832031-17.03125 94.558594-46.160157c2.5-3.132812 4.800781-6.417968 6.882812-9.839843 24.746094-39.078125 24.746094-88.921875 0-128zm-23.3125 104.503906c-15.128906 29.183594-45.257812 47.503906-78.128906 47.503906s-63-18.320312-78.128906-47.503906c-19.191406-37.027344-9.757813-82.4375 22.589844-108.757813 32.347656-26.320312 78.730468-26.320312 111.078124 0 32.347657 26.320313 41.78125 71.730469 22.589844 108.757813zm0 0"/><path d="m138.558594 63.980469h-66.558594v128h66.558594c-24.746094-39.078125-24.746094-88.921875 0-128zm0 0"/><path d="m341.441406 63.980469c24.746094 39.078125 24.746094 88.921875 0 128h66.558594v-128zm0 0"/><path d="m175.800781 165.636719-13.929687 2.847656c15.128906 29.183594 45.257812 47.503906 78.128906 47.503906s63-18.320312 78.128906-47.503906l-13.945312-2.847656c-42.355469-8.679688-86.027344-8.679688-128.382813 0zm0 0"/><path d="m8 47.980469h32v160h-32zm0 0"/><path d="m72 31.980469h-32v192h32zm0 0"/><path d="m440 47.980469h32v160h-32zm0 0"/><path d="m440 31.980469h-32v192h32zm0 0"/></g><path d="m307.894531 60.082031c-37.492187-37.476562-98.269531-37.46875-135.753906.019531-37.484375 37.488282-37.484375 98.265626 0 135.753907 37.484375 37.492187 98.261719 37.5 135.753906.019531 37.441407-37.523438 37.441407-98.269531 0-135.792969zm-124.480469 11.3125c27.109376-27.09375 69.625-31.15625 101.371094-9.6875 31.75 21.46875 43.8125 62.441407 28.757813 97.6875l-7.75-1.597656c-43.410157-8.945313-88.191407-8.945313-131.601563 0l-7.734375 1.597656c-12.824219-30.046875-6.113281-64.871093 16.957031-88zm0 113.167969c-3.226562-3.25-6.171874-6.777344-8.796874-10.535156l2.757812-.558594c41.289062-8.503906 83.878906-8.503906 125.167969 0l2.777343.566406c-13.511718 19.402344-34.945312 31.796875-58.5 33.832032-23.558593 2.03125-46.796874-6.503907-63.4375-23.304688zm0 0" fill="#1e81ce"/><path d="m480 39.980469h-32v-16h-48v32h-54.230469c-1.53125-2.273438-3.144531-4.542969-4.90625-6.769531-24.238281-31.046876-61.429687-49.2031255-100.820312-49.210938s-76.589844 18.125-100.84375 49.164062c-1.800781 2.273438-3.421875 4.558594-4.933594 6.816407h-54.265625v-32h-48v16h-32v176h32v16h48v-32h54.230469c1.53125 2.269531 3.136719 4.542969 4.90625 6.765625 24.238281 31.0625 61.4375 49.222656 100.835937 49.234375 39.398438.007812 76.605469-18.136719 100.859375-49.183594 1.800781-2.273437 3.425781-4.5625 4.9375-6.816406h54.230469v32h48v-16h32zm-464 160v-144h16v144zm48 16h-16v-176h16zm16-32v-112h44.910156c-.191406.390625-.308594.800781-.503906 1.199219-1.8125 3.773437-3.4375 7.636718-4.863281 11.574218-.214844.609375-.390625 1.226563-.605469 1.832032-1.25 3.664062-2.332031 7.378906-3.25 11.144531-.167969.707031-.367188 1.394531-.527344 2.105469-.921875 4.085937-1.601562 8.230468-2.136718 12.414062-.113282.898438-.191407 1.800781-.289063 2.707031-.980469 8.660157-.980469 17.402344 0 26.0625.097656.894531.175781 1.785157.289063 2.671875.503906 4.195313 1.21875 8.359375 2.144531 12.480469.144531.65625.328125 1.296875.488281 1.945313.945312 3.886718 2.0625 7.71875 3.351562 11.496093.175782.496094.3125.992188.488282 1.476563 1.449218 4.015625 3.105468 7.949218 4.960937 11.792968.167969.359376.277344.746094.453125 1.097657zm160 56c-34.527344.09375-67.140625-15.835938-88.289062-43.128907-2.324219-2.917968-4.464844-5.976562-6.398438-9.167968-11.34375-17.84375-17.351562-38.558594-17.3125-59.703125 0-2.769531.113281-5.527344.3125-8.265625 1.332031-18.300782 7.179688-35.988282 17.023438-51.480469l.3125-.488281c1.851562-3.015625 3.886718-5.917969 6.09375-8.6875 21.21875-27.195313 53.792968-43.089844 88.285156-43.078125 34.496094.007812 67.058594 15.917969 88.261718 43.128906 2.195313 2.75 4.222657 5.636719 6.0625 8.636719l.335938.53125c11.34375 17.84375 17.351562 38.558594 17.3125 59.703125 0 2.765625-.113281 5.527343-.3125 8.261719-1.332031 18.304687-7.179688 35.992187-17.023438 51.480468l-.3125.488282c-1.851562 3.019531-3.886718 5.917968-6.09375 8.6875-21.152343 27.265624-53.75 43.179687-88.257812 43.082031zm115.089844-56c.191406-.394531.316406-.800781.503906-1.199219 1.8125-3.777344 3.4375-7.640625 4.863281-11.578125.214844-.609375.390625-1.222656.597657-1.832031 1.261718-3.652344 2.34375-7.367188 3.257812-11.144532.167969-.703124.367188-1.390624.527344-2.101562.921875-4.089844 1.601562-8.234375 2.136718-12.417969.113282-.894531.191407-1.800781.289063-2.703125.980469-8.65625.980469-17.398437 0-26.054687-.097656-.898438-.175781-1.800781-.289063-2.699219-.535156-4.175781-1.246093-8.308594-2.136718-12.40625-.160156-.710938-.359375-1.417969-.527344-2.121094-.917969-3.769531-2.003906-7.488281-3.257812-11.152344-.207032-.597656-.375-1.207031-.589844-1.796874-1.425782-3.933594-3.050782-7.792969-4.863282-11.5625-.195312-.40625-.320312-.800782-.511718-1.230469h44.910156v112zm60.910156 32v-176h16v176zm48-16h-16v-144h16zm0 0" fill="#1e81ce"/></svg>