<svg height="480pt" viewBox="0 -60 480 480" width="480pt" xmlns="http://www.w3.org/2000/svg"><g fill="#9bc9ff"><path d="m304 192v-40h-128v40h-48v128h224v-128zm0 0"/><path d="m416 192h56v128h-56zm0 0"/><path d="m416 176h-32v160h32zm0 0"/><path d="m384 160h-32v192h32zm0 0"/><path d="m8 192h56v128h-56zm0 0"/><path d="m64 176v160h32v-160zm0 0"/><path d="m128 160h-32v192h32zm0 0"/><path d="m208 104h64v48h-64zm0 0"/></g><path d="m480 184h-56v-16h-32v-16h-48v32h-32v-32c0-4.417969-3.582031-8-8-8h-24v-32h8c4.417969 0 8-3.582031 8-8v-16h56c4.417969 0 8-3.582031 8-8v-72c0-4.417969-3.582031-8-8-8h-48c-3.445312 0-6.503906 2.203125-7.59375 5.472656l-6.175781 18.527344h-100.460938l-6.175781-18.527344c-1.089844-3.269531-4.148438-5.472656-7.59375-5.472656h-48c-4.417969 0-8 3.582031-8 8v72c0 4.417969 3.582031 8 8 8h56v16c0 4.417969 3.582031 8 8 8h8v32h-24c-4.417969 0-8 3.582031-8 8v32h-32v-32h-48v16h-32v16h-56v144h56v16h32v16h48v-32h208v32h48v-16h32v-16h56zm-288-112h-56v-56h34.230469l6.175781 18.527344c1.089844 3.269531 4.148438 5.472656 7.59375 5.472656h112c3.445312 0 6.503906-2.203125 7.59375-5.472656l6.175781-18.527344h34.230469v56h-56c-4.417969 0-8 3.582031-8 8v16h-80v-16c0-4.417969-3.582031-8-8-8zm24 40h48v32h-48zm-200 200v-112h40v112zm56 16v-144h16v144zm48 16h-16v-176h16zm16-32v-112h40c4.417969 0 8-3.582031 8-8v-32h112v32c0 4.417969 3.582031 8 8 8h40v112zm224 32v-176h16v176zm32-16v-144h16v144zm72-16h-40v-112h40zm0 0" fill="#1e81ce"/></svg>