<svg height="479pt" viewBox="0 0 479.67606 479" width="479pt" xmlns="http://www.w3.org/2000/svg"><path d="m170.71875 237.640625 233.039062 233.199219 33.960938-33.960938-20.601562-20.597656 20.601562 20.597656 33.960938-33.960937-236.722657-236.636719c-.71875 1.917969-1.359375 3.917969-2.160156 5.839844-11.480469 29.019531-33.71875 52.492187-62.078125 65.519531zm222.398438 154.640625-183.3125-183.3125zm0 0" fill="#9bc9ff"/><g fill="#1e81ce"><path d="m153.117188 136.28125h32c4.417968 0 8-3.582031 8-8s-3.582032-8-8-8h-32c-4.417969 0-8 3.582031-8 8s3.582031 8 8 8zm0 0"/><path d="m153.117188 112.28125h32c4.417968 0 8-3.582031 8-8s-3.582032-8-8-8h-32c-4.417969 0-8 3.582031-8 8s3.582031 8 8 8zm0 0"/><path d="m153.117188 88.28125h32c4.417968 0 8-3.582031 8-8s-3.582032-8-8-8h-32c-4.417969 0-8 3.582031-8 8s3.582031 8 8 8zm0 0"/><path d="m153.117188 160.28125h32c4.417968 0 8-3.582031 8-8s-3.582032-8-8-8h-32c-4.417969 0-8 3.582031-8 8s3.582031 8 8 8zm0 0"/><path d="m193.117188 176.28125c0-4.417969-3.582032-8-8-8h-32c-4.417969 0-8 3.582031-8 8s3.582031 8 8 8h32c4.417968 0 8-3.582031 8-8zm0 0"/><path d="m477.332031 397.265625-233.359375-233.289063c19.304688-66.496093-17.78125-136.28125-83.691406-157.488281-65.914062-21.207031-136.738281 13.859375-159.828125 79.136719-.859375 2.445312-.4804688 5.160156 1.015625 7.277344 1.5 2.117187 3.933594 3.375 6.527344 3.378906h105.121094v64h-105.121094c-2.59375 0-5.027344 1.257812-6.527344 3.375-1.4960938 2.117188-1.875 4.832031-1.015625 7.28125 18.09375 51.125 66.429687 85.316406 120.664063 85.34375 15.96875.027344 31.796874-2.957031 46.65625-8.800781.34375-.128907.679687-.28125 1.023437-.417969l229.304687 229.433594c3.125 3.121094 8.1875 3.121094 11.3125 0l67.917969-67.921875c3.125-3.121094 3.125-8.1875 0-11.308594zm-457.398437-220.984375h93.183594v63.710938c-40.269532-2.90625-75.863282-27.242188-93.183594-63.710938zm109.183594 63.621094v-151.621094c0-4.417969-3.582032-8-8-8h-101.199219c25.386719-53.492188 88.023437-77.980469 142.960937-55.894531 54.933594 22.085937 83.1875 83.113281 64.488282 139.292969 0 .121093-.074219.238281-.105469.367187l-.648438 1.777344c-.382812 1.085937-.800781 2.175781-1.261719 3.367187-1.3125 3.34375-2.789062 6.609375-4.425781 9.800782-.574219 1.121093-1.273437 2.183593-1.886719 3.289062-1.128906 2.023438-2.21875 4.070312-3.464843 6.023438-.800781 1.277343-1.769531 2.480468-2.640625 3.726562-1.167969 1.679688-2.296875 3.402344-3.558594 5.023438-1.058594 1.34375-2.234375 2.59375-3.34375 3.890624-1.21875 1.421876-2.402344 2.886719-3.65625 4.238282-1.257812 1.351562-2.546875 2.464844-3.824219 3.695312-1.28125 1.234375-2.546875 2.5625-3.90625 3.753906-1.359375 1.191407-2.824219 2.269532-4.246093 3.398438-1.425782 1.128906-2.71875 2.265625-4.152344 3.296875s-3.054688 2.015625-4.59375 3.015625c-1.535156 1-2.894532 1.976562-4.414063 2.871094-1.519531.898437-3.199219 1.6875-4.800781 2.527344-1.601562.839843-3.121094 1.714843-4.734375 2.464843l-.226563.089844c-1.726562.75-3.527343 1.496094-5.4375 2.214844-10.53125 4.132812-21.632812 6.625-32.921874 7.390625zm308.601562 185.664062-14.945312-14.941406c-3.140626-3.03125-8.128907-2.988281-11.214844.097656-3.085938 3.085938-3.128906 8.074219-.097656 11.214844l14.945312 14.941406-22.648438 22.648438-219.625-219.777344.519532-.328125c.882812-.503906 1.699218-1.070313 2.5625-1.597656 2.398437-1.457031 4.800781-2.96875 7.09375-4.578125 1.121094-.796875 2.199218-1.597656 3.289062-2.398438 1.984375-1.476562 3.921875-3.007812 5.816406-4.59375 1.070313-.902344 2.136719-1.8125 3.199219-2.75 1.066407-.9375 2.25-2.03125 3.34375-3.082031l177.503907 177.515625c3.140624 3.03125 8.128906 2.988281 11.214843-.097656 3.085938-3.085938 3.128907-8.078125.097657-11.214844l-178.046876-178.050781.207032-.253907c.367187-.457031.800781-.878906 1.136718-1.34375 2.320313-2.988281 4.5-6.078124 6.542969-9.273437.558594-.871094 1.066407-1.785156 1.601563-2.671875 1.4375-2.351562 2.824218-4.734375 4.109375-7.199219.625-1.199219 1.21875-2.398437 1.808593-3.65625.59375-1.257812 1.242188-2.398437 1.800782-3.632812l222.398437 222.402343zm0 0"/></g></svg>