<svg height="512pt" viewBox="0 0 512 512" width="512pt" xmlns="http://www.w3.org/2000/svg"><path d="m243 492c0 11.046875-8.953125 20-20 20h-123c-44.113281 0-80-35.886719-80-80v-222c0-11.046875 8.953125-20 20-20s20 8.953125 20 20v222c0 22.054688 17.945312 40 40 40h123c11.046875 0 20 8.953125 20 20zm269-432v60c0 11.046875-8.953125 20-20 20v65c0 11.046875-8.953125 20-20 20s-20-8.953125-20-20v-65h-432c-11.046875 0-20-8.953125-20-20v-60c0-33.085938 26.914062-60 60-60h392c33.085938 0 60 26.914062 60 60zm-472 40h432v-40c0-11.027344-8.972656-20-20-20h-392c-11.027344 0-20 8.972656-20 20zm260 120c11.046875 0 20-8.953125 20-20s-8.953125-20-20-20h-90c-11.046875 0-20 8.953125-20 20s8.953125 20 20 20zm212 157c0 74.4375-60.5625 135-135 135s-135-60.5625-135-135 60.5625-135 135-135 135 60.5625 135 135zm-40 0c0-52.382812-42.617188-95-95-95s-95 42.617188-95 95 42.617188 95 95 95 95-42.617188 95-95zm-52.855469-42.140625c-7.8125-7.8125-20.476562-7.8125-28.285156 0l-13.859375 13.855469-13.855469-13.855469c-7.8125-7.8125-20.476562-7.8125-28.285156 0-7.8125 7.808594-7.8125 20.472656 0 28.28125l13.855469 13.859375-13.859375 13.859375c-7.808594 7.808594-7.808594 20.472656 0 28.28125 3.90625 3.90625 9.027343 5.859375 14.144531 5.859375s10.238281-1.953125 14.144531-5.859375l13.855469-13.855469 13.855469 13.855469c3.90625 3.90625 9.027343 5.859375 14.144531 5.859375s10.238281-1.953125 14.144531-5.859375c7.808594-7.808594 7.808594-20.472656 0-28.28125l-13.859375-13.859375 13.859375-13.859375c7.808594-7.808594 7.808594-20.472656 0-28.28125zm0 0"/></svg>