<svg height="511pt" viewBox="0 0 511.99948 511" width="511pt" xmlns="http://www.w3.org/2000/svg"><path d="m245 492.496094c0 11.046875-8.957031 20-20 20h-125c-44.113281 0-80-35.886719-80-80v-221.996094c0-11.046875 8.953125-20 20-20s20 8.953125 20 20v221.996094c0 22.054687 17.945312 40 40 40h125c11.042969 0 20 8.953125 20 20zm266.996094-431.996094v60c0 11.042969-8.953125 20-20 20v80.996094c0 11.046875-8.953125 20-20 20s-20-8.953125-20-20v-80.996094h-431.996094c-11.046875 0-20-8.957031-20-20v-60c0-33.085938 26.914062-60 60-60h391.996094c33.085937 0 60 26.914062 60 60zm-471.996094 40h431.996094v-40c0-11.027344-8.972656-20-20-20h-391.996094c-11.027344 0-20 8.972656-20 20zm259.996094 119.996094c11.046875 0 20-8.953125 20-19.996094 0-11.046875-8.953125-20-20-20h-89.996094c-11.046875 0-20 8.953125-20 20 0 11.042969 8.953125 19.996094 20 19.996094zm195.628906 158.332031c-10.863281-2.003906-21.292969 5.175781-23.296875 16.039063-8.300781 44.980468-47.585937 77.628906-93.417969 77.628906-52.382812 0-95-42.617188-95-95 0-52.382813 42.617188-95 95-95 8.707032 0 17.328125 1.175781 25.621094 3.492187 10.636719 2.972657 21.671875-3.246093 24.640625-13.886719 2.972656-10.636718-3.246094-21.667968-13.882813-24.640624-11.796874-3.292969-24.035156-4.964844-36.378906-4.964844-74.4375 0-135 60.5625-135 135s60.5625 135 135 135c65.121094 0 120.953125-46.417969 132.753906-110.371094 2.003907-10.863281-5.175781-21.292969-16.039062-23.296875zm-142.574219-24.472656c-7.808593-7.8125-20.472656-7.8125-28.28125 0-7.8125 7.808593-7.8125 20.472656 0 28.285156l29.445313 29.445313c6.8125 6.8125 15.78125 10.21875 24.75 10.21875 8.910156 0 17.820312-3.359376 24.621094-10.09375l87.390624-86.5c7.851563-7.769532 7.917969-20.433594.148438-28.285157-7.773438-7.847656-20.433594-7.914062-28.285156-.144531l-83.859375 83.003906zm0 0"/></svg>