<svg height="512pt" viewBox="0 0 511 512" width="512pt" xmlns="http://www.w3.org/2000/svg"><path d="m492.5 412c11.046875 0 20-8.953125 20-20v-20.882812c0-47.484376-38.636719-86.117188-86.125-86.117188h-17.316406c2.222656-6.261719 3.441406-12.988281 3.441406-20v-164c0-11.046875-8.953125-20-20-20h-60v-21c0-33.085938-26.917969-60-60-60-33.085938 0-60 26.914062-60 60v21h-60c-11.046875 0-20 8.953125-20 20v164c0 5.316406.703125 10.472656 2.007812 15.382812l-32.261718-29.480468c-11.40625-11.050782-26.449219-17.0625-42.308594-16.902344-16.027344.152344-31.035156 6.535156-42.261719 17.972656-11.226562 11.441406-17.324219 26.566406-17.171875 42.589844.148438 16.027344 6.53125 31.035156 17.972656 42.261719.136719.136719.277344.269531.417969.398437l101.859375 94.308594c26.542969 25.660156 57.355469 45.695312 91.578125 59.546875 34.296875 13.882813 70.445313 20.921875 107.445313 20.921875h172.722656c11.046875 0 20-8.953125 20-20s-8.953125-20-20-20h-172.722656c-64.304688 0-125.164063-24.636719-171.367188-69.367188-.105468-.101562-.214844-.203124-.324218-.304687l-101.765626-94.222656c-3.707031-3.722657-5.769531-8.65625-5.820312-13.917969-.050781-5.339844 1.984375-10.382812 5.726562-14.195312 3.742188-3.8125 8.746094-5.941407 14.085938-5.992188 5.324219-.03125 10.382812 1.984375 14.195312 5.726562.171876.167969.34375.328126.519532.488282l115.441406 105.488281c10.96875 11.855469 26.644531 19.296875 44.03125 19.296875h100c11.046875 0 20-8.953125 20-20s-8.953125-20-20-20h-100c-4.128906 0-7.96875-1.257812-11.160156-3.410156-.117188-.117188-.226563-.242188-.347656-.355469l-4.058594-3.707031c-2.769532-3.433594-4.433594-7.785156-4.433594-12.527344 0-11.027344 8.972656-20 20-20h191.875c25.433594 0 46.125 20.6875 46.125 46.117188v20.882812c0 11.046875 8.953125 20 20 20zm-240-352c0-11.027344 8.972656-20 20-20s20 8.972656 20 20v21h-40zm-18 225h-42c-11.027344 0-20-8.972656-20-20v-144h40v21c0 11.046875 8.953125 20 20 20s20-8.953125 20-20v-21h40v21c0 11.046875 8.953125 20 20 20s20-8.953125 20-20v-21h40v144c0 11.027344-8.972656 20-20 20zm0 0"/></svg>