<?xml version="1.0" encoding="utf-8"?>
<!-- Svg Vector Icons : http://www.onlinewebfonts.com/icon -->
<!DOCTYPE svg PUBLIC "-//W3C//DTD SVG 1.1//EN" "http://www.w3.org/Graphics/SVG/1.1/DTD/svg11.dtd">
<svg version="1.1" xmlns="http://www.w3.org/2000/svg" xmlns:xlink="http://www.w3.org/1999/xlink" x="0px" y="0px" viewBox="0 0 1000 1000" enable-background="new 0 0 1000 1000" xml:space="preserve">
<metadata> Svg Vector Icons : http://www.onlinewebfonts.com/icon </metadata>
<g><path fill="none" enable-background="new" d="M20.5,10"/><path fill="#EA8010" d="M746.8,990l-3.1-0.4l-2-0.5l-1.8-0.6l-1.8-0.8l-1.9-1.1l-1.3-0.9L529.6,873.3c-4.9-2.7-8.6-6.9-10.6-11.9c-2,5-5.7,9.2-10.5,11.9L298.6,988.4l-2.7,0.7l-3.6,0.7L290,990l-2.1-0.1l-3.7-0.6l-2.3-0.6l-3.2-1.5l-207.8-114c-5.2-2.9-9.1-7.5-11-13.1H59l-0.3-4.6l-0.1-3.1V576.3c0-9.8,6.1-18.7,15.1-22.2l219.1-104.1V180.2c0-9.8,6.1-18.7,15.1-22.2L531.6,51.6v3.1c3.3,0.1,6.5,1,9.5,2.5l199.5,101.2c8.6,3.3,14.4,12,14.4,21.9v268l0.4,2.5c3.6,0,7,0.9,10.2,2.5l199.5,101.2c8.6,3.3,14.4,12,14.4,21.9v284h-1.4c-1.9,5.5-5.8,10.2-11,13.1L757.3,988.4l-2.9,0.8l-3.8,0.7l-1.7,0.1L746.8,990L746.8,990z M773.8,928.1l160.1-87.7V618.3l-160.1,87.8V928.1L773.8,928.1z M315.4,928.1l160.1-87.7V618.3l-160.1,87.8V928.1L315.4,928.1z M724.7,926.1v-222l-66.8-36.6v49.2l-55.3-26.1v-53.4l-38-20.8v222L724.7,926.1L724.7,926.1z M266,926.1v-222l-66.8-36.6v49.2l-55.3-26.1v-53.4l-38-20.8v222L266,926.1L266,926.1z M748.3,662.9l156.6-85.8L843.6,546l-158.1,82.5L748.3,662.9L748.3,662.9z M289.7,662.9l156.6-85.8L384.9,546l-158.1,82.5L289.7,662.9L289.7,662.9z M168.3,596.4l155.8-81.2l-27.9-14.2l-161.7,76.9L168.3,596.4L168.3,596.4z M626.9,596.4l155.8-81.2l-27.9-14.2l-161.7,76.9L626.9,596.4L626.9,596.4z M500.4,535.5v-222l-66.8-36.6V326l-55.3-26.1v-53.4l-38-20.8v222L500.4,535.5L500.4,535.5z M550.4,531.4l160.1-87.8v-222l-160.1,87.8V531.4z M523.8,266.8l156.8-87.9l-61.4-31.2l-158.3,84.5L523.8,266.8L523.8,266.8z M413.6,205.8l155.9-83.2l-38-18.9l-161.7,78.8L413.6,205.8L413.6,205.8z"/></g>
</svg>
