<?xml version="1.0" encoding="utf-8"?>
<!-- Svg Vector Icons : http://www.onlinewebfonts.com/icon -->
<!DOCTYPE svg PUBLIC "-//W3C//DTD SVG 1.1//EN" "http://www.w3.org/Graphics/SVG/1.1/DTD/svg11.dtd">
<svg version="1.1" xmlns="http://www.w3.org/2000/svg" xmlns:xlink="http://www.w3.org/1999/xlink" x="0px" y="0px" viewBox="0 0 1000 1000" enable-background="new 0 0 1000 1000" xml:space="preserve">
<metadata> Svg Vector Icons : http://www.onlinewebfonts.com/icon </metadata>
<g><path fill="#11CD6E" d="M865.9,185.3l-184.3-2.2L587.2,79.6l-100.3,91.5l-37.1-40.7l-54,49.2l-76.1-0.9L100,338l0.3,0.4v0l-0.5-0.3L10,515.8l32.2,16.3l1.2,2.2l56.8-31.1v417.2h619.1v-3.2l153.6-207.2V521L990,397.6L865.9,185.3z M100.2,459.1L75,472.9l25.2-49.9V459.1z M802.9,223.3l-43.6,45.1l-42-46.1L802.9,223.3z M447.3,185.1L587,338.4H279.2L447.3,185.1z M332.1,217.5l21.9,0.3L221.7,338.4h-56.3L332.1,217.5z M680.6,881.7H138.9V377h541.7V881.7L680.6,881.7z M691.7,338.4h-52.4L513,199.7l71.7-65.4l147.7,162L691.7,338.4z M834.2,697.1l-114.9,155V426.7l95,156.1l19.9-21L834.2,697.1L834.2,697.1z M821,519.5l-96.8-159.1l124.1-128.5L941.9,392L821,519.5z"/><path d="M292.5,456h233.8v37.9H292.5V456z"/></g>
</svg>
