<?xml version="1.0" ?><svg id="flat" viewBox="0 0 340 340" xmlns="http://www.w3.org/2000/svg"><title/><path d="M273.3,165.836V120.751l-28.215-5.708a102.976,102.976,0,0,0-9.237-22.267l15.923-24L219.9,36.9l-24,15.923a102.976,102.976,0,0,0-22.267-9.237L167.92,15.366H122.835l-5.708,28.216A102.976,102.976,0,0,0,94.86,52.819l-24-15.923L38.98,68.775l15.923,24a102.976,102.976,0,0,0-9.237,22.267l-28.215,5.708v45.085l28.215,5.708A102.976,102.976,0,0,0,54.9,193.811l-15.923,24,31.879,31.879,24-15.923a102.976,102.976,0,0,0,22.267,9.237l5.708,28.215H167.92l5.708-28.215a102.976,102.976,0,0,0,22.267-9.237l24,15.923,31.879-31.879-15.923-24a102.976,102.976,0,0,0,9.237-22.267ZM145.378,126.814a16.48,16.48,0,1,1-16.48,16.479A16.479,16.479,0,0,1,145.378,126.814Z" style="fill:#9ea6cc"/><path d="M273.3,165.836V146.1a108.293,108.293,0,0,1-13.4-7.891,31.841,31.841,0,0,0-36.144,0c-19.353,13.345-37.491,17.027-49.3,17.766a30.259,30.259,0,0,0-28.3,29.675c-.567,30.032,3.7,56.725,12.683,79.338q1.262,3.175,2.652,6.24h6.424l5.708-28.215a102.976,102.976,0,0,0,22.267-9.237l24,15.923,31.879-31.879-15.923-24a102.976,102.976,0,0,0,9.237-22.267Z" style="fill:#3d4459"/><path d="M116.771,96.019a4,4,0,0,1-1.956-7.491c1.166-.653,2.372-1.276,3.583-1.854a4,4,0,1,1,3.446,7.219c-1.056.5-2.108,1.048-3.124,1.617A3.985,3.985,0,0,1,116.771,96.019Z" style="fill:#3d4459"/><path d="M322.5,185.931a15.266,15.266,0,0,0-14.244-14.994c-13.166-.824-34.415-4.9-56.869-20.384a16.84,16.84,0,0,0-19.114,0c-22.459,15.487-43.712,19.564-56.878,20.388a15.258,15.258,0,0,0-14.238,14.987c-2.321,122.889,80.671,138.709,80.671,138.709S324.82,308.815,322.5,185.931Z" style="fill:#b8e288"/><path d="M308.258,170.937c-13.166-.824-34.415-4.9-56.869-20.384a16.815,16.815,0,0,0-9.559-2.976V324.634s82.99-15.819,80.672-138.7A15.266,15.266,0,0,0,308.258,170.937Z" style="fill:#83b247"/><path d="M283.489,194.116a85.171,85.171,0,0,1-32.435-12.522,16.562,16.562,0,0,0-18.2-.162,85.088,85.088,0,0,1-32.686,12.684,13.226,13.226,0,0,0-11.037,13.074c.286,72.254,52.7,88.663,52.7,88.663s52.417-16.41,52.7-88.668A13.222,13.222,0,0,0,283.489,194.116Z" style="fill:#fff"/><path d="M283.489,194.116a85.171,85.171,0,0,1-32.435-12.522,17.047,17.047,0,0,0-9.224-2.8V295.853s52.417-16.41,52.7-88.668A13.222,13.222,0,0,0,283.489,194.116Z" style="fill:#e8e8e8"/><path d="M237.5,250.593h0a4,4,0,0,1-2.828-1.172l-9.113-9.114a4,4,0,0,1,5.656-5.657l6.285,6.285,21.718-21.717a4,4,0,1,1,5.656,5.657l-24.546,24.546A4,4,0,0,1,237.5,250.593Z" style="fill:#3d4459"/><path d="M90.672,143.293a54.576,54.576,0,0,1,14.226-36.8,4,4,0,0,0-5.918-5.383,62.706,62.706,0,0,0,44.748,104.866l.1,0,.015,0,6.991,0v-8h-6.9A54.389,54.389,0,0,1,90.672,143.293Z" style="fill:#3d4459"/><path d="M207.818,149.093c.176-1.916.265-3.868.265-5.8a62.776,62.776,0,0,0-62.705-62.705,63.425,63.425,0,0,0-9.444.707,4,4,0,1,0,1.195,7.91,55.32,55.32,0,0,1,8.249-.617,54.768,54.768,0,0,1,54.705,54.705c0,1.69-.078,3.395-.231,5.07l-1.543,11.41,9.774-7.045-1.724-.914A3.974,3.974,0,0,0,207.818,149.093Z" style="fill:#3d4459"/></svg>