<?xml version="1.0" ?><svg id="flat" viewBox="0 0 340 340" xmlns="http://www.w3.org/2000/svg"><title/><path d="M187.958,228.836l16.959-10.74L193.7,188.727l-19.8,3.3a71.773,71.773,0,0,0-11.558-12.206l4.4-19.6-28.7-12.833L126.365,163.74a71.831,71.831,0,0,0-16.8-.476L98.821,146.305l-29.368,11.22,3.3,19.8A71.818,71.818,0,0,0,60.55,188.884l-19.6-4.4-12.833,28.7,16.345,11.671a71.787,71.787,0,0,0-.475,16.8L27.03,252.4l11.22,29.369,19.8-3.3a71.773,71.773,0,0,0,11.558,12.206l-4.4,19.6L93.91,323.1l11.672-16.346a71.777,71.777,0,0,0,16.8.476l10.741,16.96,29.368-11.22-3.3-19.8A71.778,71.778,0,0,0,171.4,281.612l19.6,4.4,12.834-28.7L187.482,245.64A71.838,71.838,0,0,0,187.958,228.836Z" style="fill:#9ea6cc"/><path d="M150.362,238.729s-5.74-30.828-38.513-36.57L43.778,232.212a71.442,71.442,0,0,0,.212,9.448L27.03,252.4l11.22,29.369,19.8-3.3a71.773,71.773,0,0,0,11.558,12.206l-4.4,19.6L93.91,323.1l11.672-16.346a71.777,71.777,0,0,0,16.8.476l10.741,16.96,29.368-11.22-3.3-19.8A71.778,71.778,0,0,0,171.4,281.612l6.9,1.55Z" style="fill:#6a7699"/><circle cx="116.036" cy="235.11" r="20.297" style="fill:#3d4459"/><path d="M293.263,157.554a47.554,47.554,0,0,0,2.8-13.163l.012.035,16.9-16.116L306.6,110.247,283.331,108.3l.015.044a48.005,48.005,0,0,0-7.38-6.5l.013,0-4.936-22.821-18.735-3.986L238.51,93.87l.013,0a48.01,48.01,0,0,0-9.389,2.935l.032-.034-22.044-7.693-13.174,13.905,8.87,21.6.025-.026a47.586,47.586,0,0,0-2.8,13.162l-.012-.034L183.136,153.8l6.372,18.064,23.267,1.948-.016-.044a47.966,47.966,0,0,0,7.381,6.5l-.014,0,4.936,22.82,18.735,3.986,13.8-18.833-.013,0a48.077,48.077,0,0,0,9.389-2.935l-.032.033,22.044,7.693,13.174-13.9-8.87-21.6Zm-48.335-1.81a15.017,15.017,0,1,1,17.813-11.563A15.018,15.018,0,0,1,244.928,155.744Z" style="fill:#9ea6cc"/><path d="M177.054,99.039a47.518,47.518,0,0,0,5.015-12.488l.006.035,19.406-12.981L198.3,54.717,175.711,48.81l.007.046a48.018,48.018,0,0,0-6.157-7.672l.013.005-.952-23.328-17.775-7.138-16.822,16.19.013.006a48.008,48.008,0,0,0-9.753,1.282l.037-.028-20.4-11.356L88.56,28.258l5.038,22.8.029-.021a47.609,47.609,0,0,0-5.015,12.488l-.006-.036L69.2,76.468l3.182,18.888,22.589,5.906-.008-.046a48.029,48.029,0,0,0,6.157,7.672l-.013-.005.953,23.328,17.774,7.138,16.823-16.19-.013-.005a48.009,48.009,0,0,0,9.753-1.283l-.037.028,20.4,11.357,15.362-11.441-5.038-22.8ZM129.745,88.972a15.017,15.017,0,1,1,19.531-8.34A15.018,15.018,0,0,1,129.745,88.972Z" style="fill:#9ea6cc"/><path d="M157.048,214.791c-25.049-20.336-45.2-12.632-45.2-12.632l18.158,18.216c7.715,7.741,8.406,20.33,1.037,28.4a20.3,20.3,0,0,1-29.383.664h0L83.1,230.817s-7.769,20.126,12.487,45.24c6.4,7.932,13.454,11.73,23.521,13.312a37.79,37.79,0,0,0,10,.245,18.628,18.628,0,0,1,15.129,5.509L179.6,329.277h63.177L175.958,263.5a18.626,18.626,0,0,1-5.46-15.146,37.813,37.813,0,0,0-.213-10C168.735,228.283,164.96,221.215,157.048,214.791Z" style="fill:#f9a56b"/><path d="M236.972,173.961a34.831,34.831,0,0,0,46.066-31.576,4,4,0,0,0-7.994-.314,26.767,26.767,0,1,1-11.876-23.316,4,4,0,1,0,4.445-6.651,34.808,34.808,0,1,0-30.641,61.857Z" style="fill:#3d4459"/><path d="M272.558,129.737a4,4,0,1,0,7.262-3.356l-.1-.216a4,4,0,1,0-7.262,3.356Z" style="fill:#3d4459"/><path d="M153.437,45.239a34.828,34.828,0,0,0-51.7,21.125,4,4,0,0,0,7.748,1.994,26.766,26.766,0,1,1,6.678,25.3,4,4,0,1,0-5.752,5.56,34.7,34.7,0,0,0,33.392,9.605,34.8,34.8,0,0,0,9.635-63.585Z" style="fill:#3d4459"/><path d="M109.343,81.109l-.042-.185a4,4,0,0,0-7.793,1.811l.058.245a4,4,0,1,0,7.777-1.871Z" style="fill:#3d4459"/><path d="M224.882,329.277l-49.388-48.031a9.047,9.047,0,0,0-12.614,12.971l36.05,35.06Z" style="fill:#ea6d42"/></svg>