<?xml version="1.0" ?><svg id="flat" viewBox="0 0 340 340" xmlns="http://www.w3.org/2000/svg"><title/><polygon points="237.037 72.596 223.424 72.596 223.424 106.355 237.037 117.23 250.649 106.355 250.649 72.596 237.037 72.596" style="fill:#f9a56b"/><path d="M250.649,72.6H223.424V91.273l6.188,2.006a22.185,22.185,0,0,0,21.037-4.038Z" style="fill:#ea6d42"/><path d="M237.037,117.23l-24.931,14.425a13.274,13.274,0,0,0-6.627,11.489v28.028l-5.467-4.594a24.037,24.037,0,0,1-8.575-18.4V135.81a15.648,15.648,0,0,1,8.281-13.805l23.706-15.65Z" style="fill:#ea6d42"/><path d="M237.037,117.23l24.931,14.425a13.273,13.273,0,0,1,6.626,11.489v28.028l5.467-4.594a24.037,24.037,0,0,0,8.575-18.4V135.81a15.646,15.646,0,0,0-8.281-13.805l-23.706-15.65Z" style="fill:#ea6d42"/><rect height="56.079" style="fill:#9ea6cc" width="63.115" x="205.479" y="146.766"/><polygon points="64.209 192.849 92.432 192.849 171.748 60.054 147.796 47.448 64.209 192.849" style="fill:#ea6d42"/><path d="M131.131,52.944l8.76-27.033L240.839,58.657a14.2,14.2,0,0,1,9.125,17.884h0a14.2,14.2,0,0,1-17.885,9.128Z" style="fill:#f9a56b"/><path d="M10,276.758V216.842a9.634,9.634,0,0,1,9.634-9.634H123.992a9.634,9.634,0,0,1,9.634,9.634v59.916Z" style="fill:#ea6d42"/><path d="M131.131,52.944l27.44,8.9,4.416-7.394A24.519,24.519,0,0,0,165.2,34.121l-25.308-8.21Z" style="fill:#ea6d42"/><path d="M69.217,195.839l-36.254-5.358L127.038,32.975a16.574,16.574,0,0,1,22.728-5.73l.622.371a16.574,16.574,0,0,1,5.731,22.728Z" style="fill:#f9a56b"/><path d="M229.36,73.593a3.987,3.987,0,0,1-2.83-1.17,3.694,3.694,0,0,1-.5-.61,4.143,4.143,0,0,1-.37-.69,4.659,4.659,0,0,1-.23-.75,4.042,4.042,0,0,1-.07-.78,4.114,4.114,0,0,1,.07-.78,4.99,4.99,0,0,1,.23-.75,4.579,4.579,0,0,1,.37-.69,4.109,4.109,0,0,1,.5-.61,4.048,4.048,0,0,1,3.61-1.09,3.884,3.884,0,0,1,.74.23,3.256,3.256,0,0,1,.69.37,3.639,3.639,0,0,1,.61.49,4.109,4.109,0,0,1,.5.61,4.579,4.579,0,0,1,.37.69,4.053,4.053,0,0,1,.23.75,4.129,4.129,0,0,1,.08.78,4.047,4.047,0,0,1-.08.78,3.832,3.832,0,0,1-.23.75,4.143,4.143,0,0,1-.37.69,4,4,0,0,1-1.11,1.11,3.782,3.782,0,0,1-.69.37,3.922,3.922,0,0,1-.74.22A3.445,3.445,0,0,1,229.36,73.593Z" style="fill:#ea6d42"/><path d="M139.4,49.443a4.129,4.129,0,0,1-.78-.08,4.053,4.053,0,0,1-.75-.23,3.828,3.828,0,0,1-.69-.37,3.654,3.654,0,0,1-.61-.5,3.565,3.565,0,0,1-.49-.6,3.8,3.8,0,0,1-.37-.691,4.3,4.3,0,0,1-.23-.75,4.119,4.119,0,0,1-.08-.779,4.234,4.234,0,0,1,.08-.79,3.956,3.956,0,0,1,.23-.74,3.289,3.289,0,0,1,.37-.691,3.672,3.672,0,0,1,.49-.609,4.161,4.161,0,0,1,.61-.5,4.491,4.491,0,0,1,.69-.37,4.019,4.019,0,0,1,.75-.22,3.728,3.728,0,0,1,1.56,0,3.809,3.809,0,0,1,.75.22,4.071,4.071,0,0,1,.69.37,4.013,4.013,0,0,1,1.11,1.109,3.825,3.825,0,0,1,.37.691,4.87,4.87,0,0,1,.23.74,4.219,4.219,0,0,1,.07.79,3.981,3.981,0,0,1-1.17,2.82,3.29,3.29,0,0,1-.61.5,3.519,3.519,0,0,1-.69.37,3.832,3.832,0,0,1-.75.23A4.047,4.047,0,0,1,139.4,49.443Z" style="fill:#ea6d42"/><path d="M227.37,146.766v20.951a11.1,11.1,0,0,0,11.088,11.088,3.092,3.092,0,0,1,3.088,3.089v20.951h8V181.894a11.1,11.1,0,0,0-11.088-11.089,3.091,3.091,0,0,1-3.088-3.088V146.766Z" style="fill:#3d4459"/><path d="M37.964,184.47h67.7a10.1,10.1,0,0,1,10.1,10.1v12.633a0,0,0,0,1,0,0H27.859a0,0,0,0,1,0,0V194.575A10.1,10.1,0,0,1,37.964,184.47Z" style="fill:#f9a56b"/><path d="M223.124,187.319a4.579,4.579,0,0,0-.37-.69,3.62,3.62,0,0,0-.5-.6,4.035,4.035,0,0,0-3.61-1.1,4.3,4.3,0,0,0-.75.23,3.828,3.828,0,0,0-.69.37,4.313,4.313,0,0,0-1.1,1.1,3.828,3.828,0,0,0-.37.69,4.3,4.3,0,0,0-.23.75,4.129,4.129,0,0,0-.08.78,4,4,0,0,0,1.18,2.83,3.62,3.62,0,0,0,.6.5,4.579,4.579,0,0,0,.69.37,5.371,5.371,0,0,0,.75.23,4.114,4.114,0,0,0,.78.07,3.995,3.995,0,0,0,4-4,4.114,4.114,0,0,0-.07-.78A5.371,5.371,0,0,0,223.124,187.319Z" style="fill:#3d4459"/><path d="M260.6,158.318a4.135,4.135,0,0,0-.23-.75,4.609,4.609,0,0,0-.359-.69,4.324,4.324,0,0,0-.5-.6,3.652,3.652,0,0,0-.611-.5,4.033,4.033,0,0,0-1.44-.6,4.093,4.093,0,0,0-1.56,0,4.033,4.033,0,0,0-1.44.6,3.316,3.316,0,0,0-.61.5,4.188,4.188,0,0,0-.5.6,4.431,4.431,0,0,0-.359.69,4.135,4.135,0,0,0-.23.75,3.977,3.977,0,0,0,1.089,3.61,3.779,3.779,0,0,0,.61.5,4.628,4.628,0,0,0,.69.37,4.762,4.762,0,0,0,.75.23,4.381,4.381,0,0,0,1.56,0,4.7,4.7,0,0,0,.75-.23,4.485,4.485,0,0,0,.69-.37,4.222,4.222,0,0,0,.611-.5,4.033,4.033,0,0,0,1.17-2.83A4.131,4.131,0,0,0,260.6,158.318Z" style="fill:#3d4459"/><rect height="76.69" rx="38.345" style="fill:#9ea6cc" width="320" x="10" y="238.413"/><rect height="44.408" rx="22.204" style="fill:#3d4459" width="282.553" x="28.723" y="254.554"/><circle cx="50.927" cy="276.758" r="22.204" style="fill:#e6e6e6"/><circle cx="170" cy="276.758" r="22.204" style="fill:#e6e6e6"/><circle cx="289.073" cy="276.758" r="22.204" style="fill:#e6e6e6"/></svg>