<svg height="512" viewBox="0 0 64 64" width="512" xmlns="http://www.w3.org/2000/svg"><g id="fuel_meter" data-name="fuel meter"><circle cx="32" cy="32" fill="#ebe5dd" r="29"/><path d="m61 32a29 29 0 0 1 -51.85 17.85 28.995 28.995 0 0 0 40.7-40.7 28.907 28.907 0 0 1 11.15 22.85z" fill="#d9ccbc"/><circle cx="32" cy="32" fill="#57a4ff" r="6"/><path d="m46 18-2.43 2.97-6.46 7.92h-.01l-3.69 4.52a1.994 1.994 0 0 1 -2.82-2.82l4.52-3.69v-.01l7.92-6.46z" fill="#898890"/><path d="m53 32h-8a12.991 12.991 0 0 0 -1.74-6.5l6.92-3.99a20.831 20.831 0 0 1 2.82 10.49z" fill="#cd2a00"/><path d="m45 32h8a21.838 21.838 0 0 1 -2.66 10.58l-.15-.08-6.93-4a12.991 12.991 0 0 0 1.74-6.5z" fill="#ab2300"/><path d="m50.19 42.5.15.08a19.263 19.263 0 0 1 -3.34 4.42l-5.81-5.81a12.936 12.936 0 0 0 2.07-2.69z" fill="#ab2300"/><path d="m50.18 21.51-6.92 3.99a12.813 12.813 0 0 0 -1.6-2.19l4.34-5.31-5.31 4.34a12.813 12.813 0 0 0 -2.19-1.6l3.99-6.92a21.008 21.008 0 0 1 7.69 7.69z" fill="#ff3051"/><g fill="#ffde55"><path d="m42.49 13.82-3.99 6.92a12.991 12.991 0 0 0 -6.5-1.74v-8a20.831 20.831 0 0 1 10.49 2.82z"/><path d="m37 51a2 2 0 0 1 -4 0c0-1.1 2-4 2-4s2 2.9 2 4z"/><path d="m32 11v8a12.991 12.991 0 0 0 -6.5 1.74l-3.99-6.92a20.831 20.831 0 0 1 10.49-2.82z"/></g><path d="m31 47a2 2 0 0 1 -4 0c0-1.1 2-4 2-4s2 2.9 2 4z" fill="#ffcd00"/><path d="m21.51 13.82 3.99 6.92a13.089 13.089 0 0 0 -4.76 4.76l-6.92-3.99a21.008 21.008 0 0 1 7.69-7.69z" fill="#ebbf00"/><path d="m22.81 41.19-5.81 5.81a19.263 19.263 0 0 1 -3.34-4.42l.15-.08 6.93-4a12.936 12.936 0 0 0 2.07 2.69z" fill="#007579"/><path d="m13.82 21.51 6.92 3.99a12.991 12.991 0 0 0 -1.74 6.5h-8a20.831 20.831 0 0 1 2.82-10.49z" fill="#00b6bd"/><path d="m20.74 38.5-6.93 4-.15.08a21.838 21.838 0 0 1 -2.66-10.58h8a12.991 12.991 0 0 0 1.74 6.5z" fill="#00b6bd"/><path d="m34.177 46.432c-.655.947-2.177 3.29-2.177 4.568a3 3 0 0 0 6 0c0-1.278-1.522-3.621-2.177-4.568a1.038 1.038 0 0 0 -1.646 0zm.823 5.568a1 1 0 0 1 -1-1 7.515 7.515 0 0 1 1-2.147 7.443 7.443 0 0 1 1 2.147 1 1 0 0 1 -1 1z"/><path d="m29.823 42.432a1.038 1.038 0 0 0 -1.646 0c-.655.947-2.177 3.29-2.177 4.568a3 3 0 0 0 6 0c0-1.278-1.522-3.621-2.177-4.568zm-.823 5.568a1 1 0 0 1 -1-1 7.515 7.515 0 0 1 1-2.147 7.443 7.443 0 0 1 1 2.147 1 1 0 0 1 -1 1z"/><path d="m32 2a30 30 0 1 0 30 30 30.037 30.037 0 0 0 -30-30zm0 58a28 28 0 1 1 28-28 28.031 28.031 0 0 1 -28 28z"/><path d="m32 10a22.219 22.219 0 0 0 -15.71 37.71 1.008 1.008 0 0 0 1.42 0l5.81-5.81a1.008 1.008 0 0 0 0-1.42 11.984 11.984 0 0 1 15.58-18.13l-4.1 3.34a7.04 7.04 0 1 0 3.31 3.31l3.34-4.1a11.942 11.942 0 0 1 -1.17 15.58 1.008 1.008 0 0 0 0 1.42l5.81 5.81a1.024 1.024 0 0 0 .71.29 1.042 1.042 0 0 0 .71-.29 22.219 22.219 0 0 0 -15.71-37.71zm-17.78 12.89 5.2 3a13.982 13.982 0 0 0 -1.37 5.11h-6a19.786 19.786 0 0 1 2.17-8.11zm-2.18 10.11h6a13.854 13.854 0 0 0 1.37 5.12l-5.34 3.08a20.823 20.823 0 0 1 -2.03-8.2zm8.38 6.84a14 14 0 0 0 1 1.33l-4.4 4.4a18.589 18.589 0 0 1 -1.97-2.63zm-.01-15.69-5.19-2.99a20.024 20.024 0 0 1 5.94-5.94l2.99 5.19a14.154 14.154 0 0 0 -3.74 3.74zm10.59-6.1a13.982 13.982 0 0 0 -5.11 1.37l-3-5.2a19.786 19.786 0 0 1 8.11-2.17zm1 18.95a5 5 0 0 1 0-10 5.416 5.416 0 0 1 1.21.15l-3.26 2.66a.462.462 0 0 0 -.07.07 3 3 0 1 0 4.24 4.24l.07-.07 2.66-3.26a5.416 5.416 0 0 1 .15 1.21 5 5 0 0 1 -5 5zm.68-4.26a1.009 1.009 0 0 1 -1.39-.03.99.99 0 0 1 -.29-.71 1.014 1.014 0 0 1 .26-.68l7.7-6.28zm19.27-1.74h-6a13.982 13.982 0 0 0 -1.37-5.11l5.2-3a19.786 19.786 0 0 1 2.17 8.11zm-13.84-11.58a13.982 13.982 0 0 0 -5.11-1.37v-6a19.786 19.786 0 0 1 8.11 2.17zm2.58 1.62c-.27-.21-.55-.43-.84-.63l2.99-5.19a20.656 20.656 0 0 1 2.57 1.98c-.01.01-.03.02-.04.03zm2.9 3.11c-.2-.29-.42-.57-.63-.84l3.81-4.68c.01-.01.02-.03.03-.04a20.656 20.656 0 0 1 1.98 2.57zm3.39 21.42-4.4-4.4a14 14 0 0 0 1-1.33l5.37 3.1a18.589 18.589 0 0 1 -1.97 2.63zm-2.39-7.45a13.854 13.854 0 0 0 1.37-5.12h6a20.823 20.823 0 0 1 -2.03 8.2z"/></g></svg>