<?xml version="1.0" ?><svg id="flat" viewBox="0 0 340 340" xmlns="http://www.w3.org/2000/svg"><title/><path d="M210.2,113.522V74.476H29.516A12.947,12.947,0,0,0,16.569,87.423V238.468a12.948,12.948,0,0,0,12.947,12.947H286.353A12.947,12.947,0,0,0,299.3,238.468V113.522Z" style="fill:#9ea6cc"/><path d="M210.2,74.476H184.255l4.892,7.16c-.134,1.694-.2,3.377-.2,5.036s.067,3.341.2,5.035l-12.979,19-3.648,5.34,3.374,5.517,11.414,18.668,3.373,5.517,6.416-.813,22.827-2.894q2.208,1.359,4.51,2.536l9.434,20.974,2.653,5.9h34.814l2.653-5.9,9.434-20.974q2.3-1.174,4.51-2.536L299.3,143.48V113.522H210.2Z" style="fill:#3d4459"/><polygon points="210.197 113.522 210.197 97.57 40.363 97.57 40.363 228.32 275.506 228.32 275.506 113.522 210.197 113.522" style="fill:#fff"/><path d="M210.2,97.57H185.141L176.168,110.7l-3.648,5.34,3.374,5.517,11.414,18.668,3.373,5.517,6.416-.813,22.827-2.894q2.208,1.359,4.51,2.536l9.434,20.974,2.653,5.9h34.814l2.653-5.9,1.518-3.374V113.522H210.2Z" style="fill:#bfc7e2"/><path d="M308.364,94.358a54.378,54.378,0,0,0,0-15.373l.022.036L323.431,57,312.017,38.331l-26.459,3.355.027.045a54.928,54.928,0,0,0-9.792-5.512h.015L264.868,11.9h-21.88l-10.94,24.323h.015a54.963,54.963,0,0,0-9.792,5.512l.027-.045-26.459-3.355L184.425,57,199.47,79.021l.022-.036a54.378,54.378,0,0,0,0,15.373l-.022-.035-15.045,22.022,11.414,18.667,26.459-3.354-.027-.046a54.839,54.839,0,0,0,9.792,5.512h-.015l10.94,24.324h21.88l10.94-24.324h-.015a54.8,54.8,0,0,0,9.792-5.512l-.027.046,26.459,3.354,11.414-18.667L308.386,94.323Zm-54.436,9.468a17.155,17.155,0,1,1,17.155-17.154A17.154,17.154,0,0,1,253.928,103.826Z" style="fill:#f9a56b"/><rect height="53.99" style="fill:#3d4459" width="46.007" x="134.931" y="251.415"/><path d="M115.143,305.4h85.582a15.249,15.249,0,0,1,15.249,15.249V328.1a0,0,0,0,1,0,0H99.894a0,0,0,0,1,0,0v-7.451A15.249,15.249,0,0,1,115.143,305.4Z" style="fill:#3d4459"/><path d="M144.649,183.165h-74a4,4,0,1,0,0,8h74a4,4,0,0,0,0-8Z" style="fill:#f9a56b"/><path d="M70.653,145.786h33.118a4,4,0,1,0,0-8H70.653a4,4,0,0,0,0,8Z" style="fill:#f9a56b"/><path d="M164.832,137.786h-20.8a4,4,0,1,0,0,8h20.8a4,4,0,0,0,0-8Z" style="fill:#f9a56b"/><circle cx="151.241" cy="187.165" r="13.592" style="fill:#f9a56b"/><circle cx="113.363" cy="141.786" r="13.592" style="fill:#f9a56b"/><path d="M221.181,196.634l-7.116-7.116,6.6-6.6-30.584-11.7,11.7,30.584,6.631-6.63,7.116,7.116a4,4,0,0,0,5.656-5.657Z" style="fill:#3d4459"/><path d="M291.475,75.414a4,4,0,0,0-7.664,2.3,31.15,31.15,0,1,1-21.866-21.187A4,4,0,0,0,264,48.789a39.146,39.146,0,1,0,27.48,26.625Z" style="fill:#ea6d42"/><path d="M276.423,65.068a4,4,0,0,0,5.785-5.525l-.221-.229a4,4,0,1,0-5.721,5.592Z" style="fill:#ea6d42"/></svg>