<?xml version="1.0" ?><svg id="flat" viewBox="0 0 340 340" xmlns="http://www.w3.org/2000/svg"><title/><path d="M300.251,290.04a4,4,0,0,1-4-4V266.191a8.311,8.311,0,0,0-6.887-8.166l-29.281.131a8.309,8.309,0,0,0-6.261,8.035v17.844a4,4,0,0,1-8,0V266.191a16.334,16.334,0,0,1,13-15.952,4.122,4.122,0,0,1,.784-.081l30.028-.134a4.576,4.576,0,0,1,.563.037,16.34,16.34,0,0,1,14.049,16.13V286.04A4,4,0,0,1,300.251,290.04Z" style="fill:#3d4459"/><path d="M56.249,259.95a5.648,5.648,0,0,1-1-5.6L74.6,205.116a5.652,5.652,0,0,1,4.46-3.533,21.618,21.618,0,0,0,11.671-36.9h0L85.444,178.63a8.535,8.535,0,0,1-11.006,4.954h0a8.534,8.534,0,0,1-4.954-11.006l5.29-13.951h0a21.619,21.619,0,0,0-15.729,35.367,5.649,5.649,0,0,1,1,5.6L40.69,248.828a5.648,5.648,0,0,1-4.459,3.532,21.619,21.619,0,0,0-11.672,36.9h0l5.29-13.951a8.534,8.534,0,0,1,11.005-4.954h0a8.534,8.534,0,0,1,4.954,11l-5.289,13.951h0a21.619,21.619,0,0,0,15.73-35.366Z" style="fill:#9ea6cc"/><polygon points="129.203 271.831 130.203 331 215.379 331 215.945 270.098 129.203 271.831" style="fill:#9ea6cc"/><path d="M158.1,297.584h0a1.1,1.1,0,0,0-2.169-.06l-.6,3.255a16.382,16.382,0,0,0,1.283,9.971l1.4,2.976a21.1,21.1,0,0,1,2.007,8.982V331h6.595V316.309a14.522,14.522,0,0,0-4.35-10.319A14.412,14.412,0,0,1,158.1,297.584Z" style="fill:#3d4459"/><path d="M129.347,280.4c9.454,3.053,44.591,12.3,86.527-2.6l.071-7.7L129.2,271.831Z" style="fill:#3d4459"/><path d="M133.4,216.335V258.26S90.7,277.31,55.5,242.7L67.814,218.86S112.381,238.577,133.4,216.335Z" style="fill:#3d4459"/><path d="M212.213,200.066l2.821-15.875s35.724,8.849,44.852,52.848h29.787s-7.111-78.321-90.958-99.1l-9.208,5.288-8.026,55.123,23.421,9.244Z" style="fill:#3d4459"/><path d="M150.164,130.17l2.433,13.571c-4.744,23.3-4.744,36.769,7.715,51.656h0c7.487,0,22.685-45.724,18.491-59.2l-1.323-23.37S162.532,112.826,150.164,130.17Z" style="fill:#ffc7b3"/><path d="M177.48,112.826s-14.948,0-27.316,17.344l1.987,11.087c5.8.535,16.624,1.58,27.333,2.625a23.753,23.753,0,0,0-.681-7.686Z" style="fill:#f29a86"/><path d="M150.4,156.525c-2.052,15.909-.075,26.937,9.913,38.872,5.325,0,14.548-23.127,17.924-41.334C167.105,160.062,157.357,159.039,150.4,156.525Z" style="fill:#3d4459"/><path d="M178.8,136.2s-.862,19.732-20.828,48c-4.857-16.171-6.811-28.551-5.378-40.45,0,0-.1.054-.288.158-7.65,4.271-12.744,11.687-15.126,20.119-3.755,13.3-5.8,29.122-7.1,44.487-.108,6.473-.358,12.512-1.225,16.664-.278,6.238-.475,12.21-.514,17.7.792,5.781,1.352,11.3.178,14.831.14,6.736.522,11.753.682,14.133,0,0,34.75,12.406,86.742-1.733a98.2,98.2,0,0,0,.3-14.716l-2.1-15.112q-.13-.537-.271-1.073c-.06-.227-.884-7.184-1.216-15.205a60.582,60.582,0,0,1-.3-16.151c-.053-4.573-.144-7.775-.144-7.775s-.108.016-.309.04a17.982,17.982,0,0,1-20.029-18.667c.47-10.941,2.012-28.063,6.84-43.5C198.715,137.939,188.364,133.544,178.8,136.2Z" style="fill:#f9a56b"/><path d="M157.975,184.191c-.818-2.724-1.547-5.333-2.2-7.858-2.5,3.476-7.924,12.331-7.924,23.725V258.9s-.616,10.9,5.952,17.42c4.728.393,10.061.61,15.946.514-10.7-.135-16.633-9.259-16.633-18.007V199.717A27.248,27.248,0,0,1,157.975,184.191Z" style="fill:#ea6d42"/><path d="M259.886,237.039h29.787v14.544a14.893,14.893,0,0,1-14.894,14.893h0a14.893,14.893,0,0,1-14.893-14.893Z" style="fill:#ffc7b3"/><path d="M67.35,220.019H79.364a8.8,8.8,0,0,1,8.8,8.8v5.364a8.8,8.8,0,0,1-8.8,8.8H67.35a0,0,0,0,1,0,0V220.019A0,0,0,0,1,67.35,220.019Z" style="fill:#f29a86" transform="translate(79.485 -12.703) rotate(18.972)"/><rect height="43.251" rx="13.212" style="fill:#ffc7b3" transform="translate(77.477 -6.118) rotate(18.972)" width="32.852" x="40.619" y="207.154"/><path d="M204.5,75.52l.474,5.591s8.3,21.26-11.374,29.5h-37.75V74.457Z" style="fill:#3d4459"/><path d="M120.381,78.641v23.648a33.65,33.65,0,0,0,33.65,33.65h2.274c8.907,0,18.829-4.081,23.2-13.564a11.126,11.126,0,0,0,.395-1.071,21.373,21.373,0,0,0,6.313,2.527,9.368,9.368,0,0,0,11.3-9.2v-5.458c0-10.111-13.839-13.106-17.949-3.867-.053.12-.106.243-.158.367,0,0-18.107-6.45-14.387-27.037Z" style="fill:#ffc7b3"/><path d="M132.653,104.07a4.013,4.013,0,0,1-4-4,4.234,4.234,0,0,1,.08-.79,3.96,3.96,0,0,1,.231-.74,3.494,3.494,0,0,1,.37-.7,3.893,3.893,0,0,1,.49-.6,3.982,3.982,0,0,1,5.659,0,4.652,4.652,0,0,1,.5.6,4.946,4.946,0,0,1,.37.7,3.925,3.925,0,0,1,.221.74,3.53,3.53,0,0,1,.079.79,4.012,4.012,0,0,1-4,4Z" style="fill:#3d4459"/><path d="M149.553,104.06a4.049,4.049,0,0,1-.78-.07,3.832,3.832,0,0,1-.75-.23,4.569,4.569,0,0,1-.689-.37,3.225,3.225,0,0,1-.611-.5,4,4,0,0,1,0-5.65,3.661,3.661,0,0,1,.611-.5,4.569,4.569,0,0,1,.689-.37,3.832,3.832,0,0,1,.75-.23,4.1,4.1,0,0,1,1.561,0,3.875,3.875,0,0,1,.75.23,4.569,4.569,0,0,1,.689.37,4.169,4.169,0,0,1,.611.5,3.742,3.742,0,0,1,.49.61,3.35,3.35,0,0,1,.37.69,3.953,3.953,0,0,1,.229.74,4.234,4.234,0,0,1,.08.79,4.129,4.129,0,0,1-.08.78,4.3,4.3,0,0,1-.229.75,3.958,3.958,0,0,1-.37.69,4.141,4.141,0,0,1-.49.6,3.612,3.612,0,0,1-.611.5,4.569,4.569,0,0,1-.689.37,3.875,3.875,0,0,1-.75.23A4.125,4.125,0,0,1,149.553,104.06Z" style="fill:#3d4459"/><path d="M120.381,78.641v8.925h44.38a27.854,27.854,0,0,1,.252-8.925Z" style="fill:#f29a86"/><path d="M115.652,65.038h90.932a6.318,6.318,0,0,1,6.318,6.318v2.83a6.925,6.925,0,0,1-6.925,6.925H116.26a6.925,6.925,0,0,1-6.925-6.925v-2.83a6.318,6.318,0,0,1,6.318-6.318Z" style="fill:#f9a56b"/><path d="M206.584,65.038V54.466A45.466,45.466,0,0,0,161.118,9h0a45.466,45.466,0,0,0-45.466,45.466V65.038Z" style="fill:#f9a56b"/><path d="M174.432,24.165c12.161-.346,21.353,4.74,28.244,11.861A45.466,45.466,0,0,0,161.118,9h0a45.466,45.466,0,0,0-45.466,45.466V65.038h25.8S135.9,25.259,174.432,24.165Z" style="fill:#ea6d42"/><rect height="7.947" style="fill:#ea6d42" width="90.932" x="115.652" y="57.091"/><path d="M241.174,273.023H308.9a13.144,13.144,0,0,1,13.144,13.144V331a0,0,0,0,1,0,0H228.03a0,0,0,0,1,0,0V286.167A13.144,13.144,0,0,1,241.174,273.023Z" style="fill:#9ea6cc"/><rect height="6.8" style="fill:#3d4459" width="94.012" x="228.03" y="296.156"/><path d="M281.562,309.757H268.51a7.31,7.31,0,0,1-7.311-7.31v-6.291h27.674v6.291A7.31,7.31,0,0,1,281.562,309.757Z" style="fill:#fff"/><path d="M130.082,208.505c-.5,5.25-.921,10.815-1.225,16.664,28.235,4.893,67.34.91,83.8-1.177l-.3-16.151C171.255,212.543,143.2,210.282,130.082,208.505Z" style="fill:#fff"/><path d="M216.24,255.382a82.661,82.661,0,0,0-2.1-15.112c-30.134,6.369-69.241,4.03-85.8,2.6q-.049,7.2.178,14.831C158.9,264.1,202.629,257.677,216.24,255.382Z" style="fill:#fff"/><path d="M153.118,210.4c-1.835-.071-3.585-.156-5.265-.251v17.027q2.619.135,5.265.212Z" style="fill:#e2e2e2"/><path d="M153.118,258.83V244.3q-2.7-.081-5.265-.19V258.9s-.024.451-.01,1.217c1.77.1,3.55.187,5.34.241C153.143,259.851,153.118,259.34,153.118,258.83Z" style="fill:#e2e2e2"/></svg>