<?xml version="1.0" ?><svg id="flat" viewBox="0 0 340 340" xmlns="http://www.w3.org/2000/svg"><title/><polygon points="169.957 134.035 153.548 134.035 153.548 181.991 170.128 181.991 186.538 181.991 186.538 134.035 169.957 134.035" style="fill:#ffc7b3"/><polygon points="186.538 164.867 186.538 134.035 169.957 134.035 153.548 134.035 153.548 147.851 186.538 164.867" style="fill:#f29a86"/><path d="M55.877,173.759A60.041,60.041,0,0,1,85.715,170v39.544S48.027,209.738,55.877,173.759Z" style="fill:#3d4459"/><path d="M207.038,170h-.847l-12.313-18.04-23.75,25.589-23.75-25.589L134.064,170h-.846a27.334,27.334,0,0,0-27.334,27.334v7.747H234.372v-7.747A27.334,27.334,0,0,0,207.038,170Z" style="fill:#f2f2f2"/><path d="M284.123,173.759A60.041,60.041,0,0,0,254.285,170v39.544S291.973,209.738,284.123,173.759Z" style="fill:#3d4459"/><path d="M296.722,186.007a29.258,29.258,0,0,0-12.6-12.248s.066.4.134,1.13a27.744,27.744,0,0,1-27.7,30.192H83.443a27.744,27.744,0,0,1-27.7-30.192c.068-.728.134-1.13.134-1.13a29.258,29.258,0,0,0-12.6,12.248,34.083,34.083,0,0,0-4.114,16.521v87.315A40.157,40.157,0,0,0,79.32,330H260.68a40.157,40.157,0,0,0,40.156-40.157V202.528A34.083,34.083,0,0,0,296.722,186.007Z" style="fill:#9ea6cc"/><path d="M162.226,10h15.8a5.152,5.152,0,0,1,5.152,5.152V65.038a0,0,0,0,1,0,0H157.074a0,0,0,0,1,0,0V15.152A5.152,5.152,0,0,1,162.226,10Z" style="fill:#ea6d42"/><path d="M157.074,15.152s-36.912,6.688-36.912,49.886h36.912Z" style="fill:#f9a56b"/><path d="M183.182,15.152s36.912,6.688,36.912,49.886H183.182Z" style="fill:#f9a56b"/><path d="M137.006,85.111H203.25a0,0,0,0,1,0,0v26.434a33.122,33.122,0,0,1-33.122,33.122h0a33.122,33.122,0,0,1-33.122-33.122V85.111A0,0,0,0,1,137.006,85.111Z" style="fill:#ffc7b3"/><path d="M128.024,85.111h8.982a0,0,0,0,1,0,0v24.616a0,0,0,0,1,0,0h-8.982a12.308,12.308,0,0,1-12.308-12.308v0a12.308,12.308,0,0,1,12.308-12.308Z" style="fill:#f29a86"/><path d="M215.558,85.111h8.982a0,0,0,0,1,0,0v24.616a0,0,0,0,1,0,0h-8.982A12.308,12.308,0,0,1,203.25,97.419v0a12.308,12.308,0,0,1,12.308-12.308Z" style="fill:#f29a86" transform="translate(427.79 194.839) rotate(180)"/><path d="M146.208,85.111S146.2,104.6,167.38,106.223V98.487s20.194,9.676,35.87-4.349V85.111Z" style="fill:#3d4459"/><path d="M163.528,116.68a4.524,4.524,0,0,0-.36-.69,4.279,4.279,0,0,0-.5-.61,4.919,4.919,0,0,0-.61-.5,4.524,4.524,0,0,0-.69-.36,3.832,3.832,0,0,0-.75-.23,4.037,4.037,0,0,0-3.61,1.09,4.279,4.279,0,0,0-.5.61,4.524,4.524,0,0,0-.36.69,3.832,3.832,0,0,0-.23.75,4.129,4.129,0,0,0-.08.78,3.914,3.914,0,0,0,1.78,3.32,4.033,4.033,0,0,0,1.44.6,3.843,3.843,0,0,0,1.56,0,4.033,4.033,0,0,0,1.44-.6,3.963,3.963,0,0,0,1.7-4.1A3.832,3.832,0,0,0,163.528,116.68Z" style="fill:#3d4459"/><path d="M184.168,117.43a3.832,3.832,0,0,0-.23-.75,3.771,3.771,0,0,0-.371-.69,3.584,3.584,0,0,0-.489-.61,3.995,3.995,0,0,0-6.75,3.61,3.832,3.832,0,0,0,.23.75,4.436,4.436,0,0,0,.36.69,4.746,4.746,0,0,0,.5.61,3.96,3.96,0,0,0,6.149-.61,3.771,3.771,0,0,0,.371-.69,3.832,3.832,0,0,0,.23-.75,3.843,3.843,0,0,0,0-1.56Z" style="fill:#3d4459"/><path d="M196.855,177.811,179.2,192.583l-9.068-10.592-9.068,10.592L143.4,177.811a.65.65,0,0,0-.927.9l15.864,20.066a3.682,3.682,0,0,0,5.544.265l4.053-4.225a3.039,3.039,0,0,1,4.386,0l4.053,4.225a3.682,3.682,0,0,0,5.544-.265l15.864-20.066A.65.65,0,0,0,196.855,177.811Z" style="fill:#bfc7e2"/><path d="M39.164,288.785h8.842c7.077,0,12.813-6.264,12.813-13.991V248.65H39.164Z" style="fill:#3d4459"/><path d="M300.836,289.843V202.528a34.083,34.083,0,0,0-4.114-16.521,29.258,29.258,0,0,0-12.6-12.248s.066.4.134,1.13a27.744,27.744,0,0,1-27.7,30.192H203.7c.332,23.764-5.289,91.185-75.681,124.919H260.68A40.157,40.157,0,0,0,300.836,289.843Z" style="fill:#8490b7"/><rect height="49.19" rx="16.438" style="fill:#ffc7b3" width="32.876" x="27.944" y="227.512"/><path d="M300.836,288.785h-8.842c-7.077,0-12.813-6.264-12.813-13.991V248.65h21.655Z" style="fill:#3d4459"/><rect height="49.19" rx="16.438" style="fill:#ffc7b3" transform="translate(591.237 504.214) rotate(180)" width="32.876" x="279.181" y="227.512"/><path d="M120.608,57.138a68.847,68.847,0,0,0-.446,7.9h36.912v-7.9Z" style="fill:#ea6d42"/><path d="M183.182,65.038h36.912a68.847,68.847,0,0,0-.446-7.9H183.182Z" style="fill:#ea6d42"/><path d="M120.162,65.038h99.932a6.318,6.318,0,0,1,6.318,6.318V85.111a0,0,0,0,1,0,0H113.844a0,0,0,0,1,0,0V71.356A6.318,6.318,0,0,1,120.162,65.038Z" style="fill:#f9a56b"/></svg>